<svg width="150" height="150" viewBox="0 0 150 150" fill="none" xmlns="http://www.w3.org/2000/svg">
<path d="M75 150.001C116.421 150.001 150 116.422 150 75.0005C150 33.5788 116.421 0 75 0C33.5786 0 0 33.5788 0 75.0005C0 116.422 33.5786 150.001 75 150.001Z" fill="#F0DC82"/>
<mask id="mask0_1765_1741" style="mask-type:luminance" maskUnits="userSpaceOnUse" x="0" y="0" width="150" height="151">
<path d="M75 150.001C116.421 150.001 150 116.422 150 75.0005C150 33.5788 116.421 0 75 0C33.5786 0 0 33.5788 0 75.0005C0 116.422 33.5786 150.001 75 150.001Z" fill="white"/>
</mask>
<g mask="url(#mask0_1765_1741)">
<path d="M12.8564 63.6495C12.8564 35.4203 32.2727 14.0245 62.0544 14.0245C81.4636 14.0245 95.795 22.18 103.741 38.2879C111.679 22.2009 126.024 14.0245 145.434 14.0245C175.208 14.0245 194.625 35.4203 194.625 63.6844C194.625 86.4091 183.811 103.398 162.451 114.205C152.526 119.276 144.58 123.689 138.845 127.655C127.598 135.349 117.673 148.638 115.246 170.677H92.3048C91.2067 159.64 88.3391 150.603 83.7018 143.763C79.2884 136.922 74.2175 131.411 68.4822 127.676C62.9707 123.71 55.0252 119.283 45.1002 114.226C23.6697 103.363 12.8564 86.3741 12.8564 63.6495Z" fill="white"/>
</g>
<path d="M42.5571 54.7359V39.4516H36.9833C36.9833 40.7136 36.9131 42.1509 36.808 43.7284C36.7028 45.3059 36.5626 46.7081 36.4224 47.9C36.1419 49.6528 35.8615 51.055 35.5109 52.1768C35.1604 53.2986 34.7397 54.175 34.2489 54.7359H42.5571ZM46.1678 39.4516V54.7359H49.2878V61.0809H48.1309V60.2045C48.1309 58.7322 47.7804 57.6455 47.0793 56.9444C46.3782 56.2433 45.2914 55.8927 43.8892 55.8927H35.7914C34.3541 55.8927 33.3024 56.2433 32.6013 56.9444C31.9002 57.6455 31.5496 58.7322 31.5496 60.2045V61.0809H30.4279V54.7359H32.391C32.9869 54.3152 33.5127 53.544 33.9334 52.4222C34.3541 51.3004 34.7046 49.8631 34.9851 48.0403C35.0903 47.269 35.1954 46.2875 35.3006 45.1306C35.3707 44.0089 35.4759 42.1159 35.581 39.4516H32.8467V38.3299H49.1826V39.4516H46.1678Z" fill="#1E1E1E"/>
<path d="M60.1284 37.9092C62.4421 37.9092 64.4403 38.7856 66.0528 40.5384C67.6654 42.2911 68.5067 44.4646 68.5067 47.1288C68.5067 49.793 67.6654 52.0015 66.0528 53.7193C64.4403 55.437 62.4421 56.2783 60.1284 56.2783C57.7096 56.2783 55.7114 55.437 54.169 53.7543C52.5915 52.0716 51.8203 49.8631 51.8203 47.1288C51.8203 44.3945 52.5915 42.186 54.169 40.4682C55.7114 38.7856 57.7096 37.9092 60.1284 37.9092ZM60.1284 39.1011C58.5509 39.1011 57.3941 39.7321 56.693 40.9941C55.9568 42.2561 55.6063 44.3244 55.6063 47.1288C55.6063 49.9333 55.9568 51.9665 56.693 53.2285C57.3941 54.4905 58.5509 55.1215 60.1284 55.1215C61.6358 55.1215 62.7927 54.4554 63.5639 53.1233C64.3351 51.7912 64.7207 49.793 64.7207 47.1288C64.7207 44.4646 64.3351 42.4664 63.5639 41.1343C62.7927 39.8022 61.6358 39.1011 60.1284 39.1011Z" fill="#1E1E1E"/>
<path d="M80.5434 38.3649C82.8571 38.3649 84.8202 39.2062 86.4327 40.8539C88.0453 42.5015 88.8866 44.5697 88.8866 47.0587C88.8866 49.5476 88.0102 51.7211 86.2925 53.544C84.5748 55.3669 82.6117 56.2783 80.3681 56.2783C77.8441 56.2783 75.7758 55.2968 74.1633 53.3336C72.5507 51.3705 71.7444 48.7414 71.7444 45.5163C71.7444 41.0642 72.4806 37.6638 73.988 35.3501C75.4954 33.0365 77.9843 31.6342 81.4198 31.2136C81.8404 31.1785 82.4013 31.1435 83.1726 31.0733C83.9087 31.0032 84.4346 30.9682 84.7501 30.8981C85.6265 30.7929 86.2575 30.5826 86.608 30.3021C86.9586 30.0217 87.1338 29.6361 87.1338 29.1102H88.1855C88.1855 30.2671 88.0102 31.2136 87.6597 31.9147C87.3091 32.6508 86.7833 33.1767 86.0822 33.5272C85.7316 33.7025 85.346 33.8427 84.9253 33.9479C84.4696 34.0881 83.1726 34.2283 81.0342 34.4036C79.2113 34.5789 77.8441 34.8944 76.8976 35.3852C75.9161 35.876 75.1799 36.542 74.619 37.4184C74.0932 38.2597 73.7076 39.2413 73.4622 40.4332C73.1817 41.6251 73.0765 43.0273 73.0765 44.6399H73.2869C73.6024 42.7118 74.4087 41.1694 75.7408 40.0476C77.0729 38.9258 78.6504 38.3649 80.5434 38.3649ZM80.3681 39.5217C78.7906 39.5217 77.5987 40.1527 76.8275 41.4147C76.0212 42.6767 75.6356 44.5697 75.6356 47.0587C75.6356 49.6178 76.0212 51.6159 76.8626 53.0181C77.6688 54.4204 78.8257 55.1215 80.3681 55.1215C81.7703 55.1215 82.9272 54.3853 83.8036 52.913C84.6449 51.4406 85.1006 49.5126 85.1006 47.0938C85.1006 44.71 84.68 42.852 83.8386 41.5199C82.9973 40.1878 81.8404 39.5217 80.3681 39.5217Z" fill="#1E1E1E"/>
<path d="M50.831 79.6717C52.2682 79.6717 53.3199 79.0407 54.021 77.7787C54.6871 76.5167 55.0376 74.5186 55.0727 71.7141C55.0727 68.9798 54.7572 67.0167 54.0911 65.7547C53.39 64.4926 52.3384 63.8616 50.9011 63.8616C49.569 63.8616 48.4822 64.5628 47.711 65.8949C46.9047 67.227 46.5191 69.0499 46.5191 71.2934V73.3267C46.5191 75.5352 46.8346 77.1477 47.5357 78.1643C48.2018 79.1809 49.2885 79.6717 50.831 79.6717ZM46.5191 87.9799H50.4103V89.277H40.1741V87.9799H42.9084V64.2473H40.1741V62.9502C41.8918 62.9502 43.1187 62.9502 43.8549 62.8801C44.556 62.81 45.0818 62.6698 45.4324 62.4594L45.9232 62.7749V67.893C46.1335 66.2805 46.7295 64.9834 47.7811 64.0019C48.7977 63.0203 50.0948 62.5295 51.6723 62.5295C53.6705 62.5295 55.3531 63.4059 56.7554 65.1236C58.1576 66.8414 58.8587 69.0148 58.8587 71.644C58.8587 74.3433 58.0875 76.5518 56.6151 78.3046C55.1428 80.0573 53.3199 80.8987 51.1465 80.8987C50.0597 80.8987 49.1483 80.7234 48.4121 80.3027C47.6409 79.9171 47.0099 79.3212 46.5191 78.4798V87.9799Z" fill="#1E1E1E"/>
<path d="M68.1208 64.072V70.417H70.5045C72.8883 70.417 74.7813 70.8728 76.1134 71.7141C77.4456 72.5554 78.1467 73.7824 78.1467 75.3949C78.1467 77.0426 77.4806 78.3046 76.1485 79.1809C74.8164 80.0924 72.9234 80.5131 70.5045 80.5131H61.7757V79.3562H64.51V64.072H61.7757V62.9502H71.3809V64.072H68.1208ZM87.0157 80.5131H78.0766V79.3562H80.7057V64.072H77.7611V62.9502H87.0157V64.072H84.3165V79.3562H87.0157V80.5131ZM70.154 71.5388H68.1208V79.3562H70.189C71.5913 79.3562 72.6429 79.0407 73.344 78.3747C74.0452 77.7437 74.3957 76.7271 74.3957 75.3599C74.3957 74.0278 74.0452 73.0462 73.4142 72.4503C72.7481 71.8543 71.6614 71.5388 70.154 71.5388Z" fill="#1E1E1E"/>
<path d="M95.9872 79.3562H98.7566V80.5131H89.6422V79.3562H92.3765V64.072H89.6422V62.9502H98.7566V64.072H95.9872V75.5702L103.594 65.7897V64.072H100.825V62.9502H109.904V64.072H107.205V79.3562H109.904V80.5131H100.825V79.3562H103.594V67.7528L95.9872 77.5333V79.3562ZM103.594 52.9243C104.225 52.9243 104.716 53.1346 105.067 53.5553C105.417 53.976 105.628 54.5018 105.628 55.1328C105.628 56.535 105.067 57.762 104.015 58.7786C102.928 59.8303 101.526 60.321 99.8433 60.321C98.1256 60.321 96.7234 59.8303 95.6717 58.7786C94.585 57.762 94.0592 56.535 94.0592 55.1328C94.0592 54.5018 94.2344 53.976 94.6201 53.5553C94.9706 53.1346 95.4614 52.9243 96.0924 52.9243C96.6533 52.9243 97.109 53.0996 97.4596 53.4151C97.8101 53.7656 97.9854 54.1863 97.9854 54.7121C97.9854 55.4133 97.7049 55.904 97.1791 56.2546C96.6182 56.6051 95.9171 56.7103 95.0758 56.5C95.4965 57.0609 96.1274 57.5166 96.9688 57.8321C97.8101 58.1826 98.7566 58.3229 99.8433 58.3229C100.965 58.3229 101.947 58.1826 102.823 57.8321C103.664 57.5166 104.33 57.0609 104.751 56.4649C103.77 56.7103 103.033 56.6753 102.508 56.3598C101.947 56.0443 101.701 55.4834 101.701 54.7121C101.701 54.1863 101.842 53.7656 102.192 53.4151C102.543 53.0996 102.998 52.9243 103.594 52.9243Z" fill="#1E1E1E"/>
<path d="M85.0085 96.5036C84.7281 99.2029 83.7816 101.376 82.2041 103.024C80.5915 104.707 78.6635 105.513 76.4199 105.513C74.2815 105.513 72.5287 104.672 71.1966 102.954C69.8645 101.271 69.2686 99.1678 69.4438 96.6438H66.6744L65.6228 105.127H61.977L64.0102 88.6862H61.1006L61.2759 87.5644C63.0287 87.5644 64.4309 87.5294 65.4826 87.4593C66.4992 87.3892 67.1302 87.319 67.3405 87.1788L67.7962 87.5294L66.8147 95.487H69.549C69.9346 92.963 70.9162 90.9648 72.4937 89.4224C74.0361 87.915 75.9291 87.1438 78.1026 87.1438C80.3111 87.1438 82.0989 88.0552 83.431 89.843C84.7631 91.6659 85.289 93.8744 85.0085 96.5036ZM73.2298 96.0479C72.9143 98.9926 73.0195 101.131 73.5453 102.428C74.0712 103.725 75.0527 104.356 76.5251 104.356C77.9273 104.356 78.979 103.83 79.6801 102.708C80.3812 101.622 80.907 99.5534 81.2576 96.5036C81.538 93.594 81.4329 91.4907 80.907 90.2287C80.3812 88.9667 79.3996 88.3357 77.9974 88.3357C76.5601 88.3357 75.5085 88.8965 74.8073 89.9482C74.1062 90.9999 73.5804 93.0331 73.2298 96.0479Z" fill="#1E1E1E"/>
<path d="M93.2718 105.513C91.4138 105.513 89.9766 105.162 88.995 104.426C88.0134 103.69 87.5227 102.603 87.5227 101.201C87.5227 100.149 87.7681 99.2379 88.2939 98.5018C88.8197 97.7656 89.9415 96.9944 91.6592 96.1881C93.3419 95.3818 94.4286 94.6106 94.9545 93.9095C95.4803 93.2084 95.7607 92.2969 95.7607 91.2453C95.7607 90.3338 95.5153 89.6327 95.0947 89.1419C94.674 88.6512 94.043 88.4058 93.2367 88.4058C92.3253 88.4058 91.5541 88.7563 90.9231 89.4224C90.2921 90.1235 89.8714 91.105 89.5909 92.3671H88.3991C88.6795 90.5792 89.3105 89.2471 90.257 88.4058C91.1684 87.5644 92.4655 87.1438 94.1482 87.1438C95.6205 87.1438 96.8475 87.5644 97.829 88.3707C98.8106 89.212 99.3013 90.2637 99.3013 91.5257C99.3013 92.6475 99.0209 93.6291 98.46 94.4003C97.8991 95.1715 96.7423 95.9778 94.9895 96.8191C93.3769 97.6254 92.3253 98.3616 91.8345 98.9926C91.3437 99.6586 91.0983 100.465 91.0983 101.376C91.0983 102.288 91.3437 102.989 91.8696 103.515C92.3603 104.041 93.0965 104.286 94.0079 104.286C95.1297 104.286 96.0762 103.9 96.8475 103.094C97.6187 102.323 98.0744 101.201 98.2847 99.7988H99.5117C99.2312 101.762 98.5652 103.234 97.5486 104.146C96.5319 105.057 95.0947 105.513 93.2718 105.513Z" fill="#1E1E1E"/>
<path d="M108.553 91.5257C108.518 92.2969 108.238 92.9279 107.712 93.4538C107.186 93.9796 106.52 94.225 105.714 94.225C104.978 94.225 104.417 94.0497 104.031 93.6291C103.646 93.2084 103.47 92.6475 103.47 91.9464C103.47 91.2453 103.751 90.6143 104.277 90.0534C104.802 89.5275 105.468 89.2471 106.31 89.2471C107.011 89.2471 107.572 89.4925 107.992 89.9132C108.378 90.3338 108.553 90.8947 108.553 91.5257ZM106.906 102.814C106.871 103.585 106.59 104.216 106.064 104.742C105.539 105.268 104.872 105.513 104.066 105.513C103.33 105.513 102.769 105.338 102.383 104.917C101.998 104.496 101.823 103.935 101.823 103.234C101.823 102.533 102.103 101.902 102.629 101.341C103.155 100.815 103.821 100.535 104.662 100.535C105.363 100.535 105.924 100.78 106.345 101.201C106.73 101.622 106.906 102.183 106.906 102.814Z" fill="#1E1E1E"/>
<path d="M118.255 93.6992C118.185 97.6955 116.923 101.587 114.504 105.443C112.085 109.299 109.036 112.244 105.39 114.242L104.759 113.26C108.054 110.947 110.473 108.142 111.945 104.882C113.418 101.622 114.189 97.4151 114.294 92.2268C114.294 91.3154 114.294 90.474 114.224 89.6327C114.154 88.8264 114.084 88.0552 113.978 87.3541C113.803 86.4427 113.593 85.6364 113.312 84.8652C113.032 84.0939 112.716 83.3928 112.331 82.7618C112.05 82.3061 111.7 81.8854 111.349 81.4648C110.999 81.0441 110.192 80.343 108.93 79.3264L109.667 78.3448C112.226 79.5718 114.294 81.605 115.906 84.4795C117.519 87.3541 118.29 90.4039 118.255 93.6992Z" fill="#1E1E1E"/>
</svg>
