<svg width="42" height="42" viewBox="0 0 42 42" fill="none" xmlns="http://www.w3.org/2000/svg">
<path fill-rule="evenodd" clip-rule="evenodd" d="M21 38.5C30.665 38.5 38.5 30.665 38.5 21C38.5 11.335 30.665 3.5 21 3.5C11.335 3.5 3.5 11.335 3.5 21C3.5 30.665 11.335 38.5 21 38.5Z" stroke="#D6C7DC"/>
<path fill-rule="evenodd" clip-rule="evenodd" d="M21 36.75C21 36.75 28 31.0227 28 21C28 10.9773 21 5.25 21 5.25C21 5.25 14 10.9773 14 21C14 31.0227 21 36.75 21 36.75Z" stroke="#D6C7DC"/>
<path d="M4.375 15.75H37.625" stroke="#D6C7DC" stroke-linecap="round"/>
<path d="M4.375 26.25H37.625" stroke="#D6C7DC" stroke-linecap="round"/>
</svg>
