<svg width="42" height="42" viewBox="0 0 42 42" fill="none" xmlns="http://www.w3.org/2000/svg">
<path d="M5.25 31.5L26.25 15.75" stroke="#D6C7DC" stroke-linecap="round"/>
<path d="M26.25 26.25L5.25 10.5" stroke="#D6C7DC" stroke-linecap="round"/>
<path fill-rule="evenodd" clip-rule="evenodd" d="M31.5 17.5C34.3995 17.5 36.75 15.1495 36.75 12.25C36.75 9.35051 34.3995 7 31.5 7C28.6005 7 26.25 9.35051 26.25 12.25C26.25 15.1495 28.6005 17.5 31.5 17.5Z" stroke="#D6C7DC"/>
<path fill-rule="evenodd" clip-rule="evenodd" d="M31.5 35C34.3995 35 36.75 32.6495 36.75 29.75C36.75 26.8505 34.3995 24.5 31.5 24.5C28.6005 24.5 26.25 26.8505 26.25 29.75C26.25 32.6495 28.6005 35 31.5 35Z" stroke="#D6C7DC"/>
</svg>
