<svg width="42" height="42" viewBox="0 0 42 42" fill="none" xmlns="http://www.w3.org/2000/svg">
<path d="M19.25 14L16.1723 12.4611C15.8946 12.3223 15.5884 12.25 15.2779 12.25H13.0784C12.548 12.25 12.0393 12.4607 11.6642 12.8358L9.33579 15.1642C8.96071 15.5393 8.75 16.048 8.75 16.5784L8.75 26.9296C8.75 27.5983 9.0842 28.2228 9.6406 28.5937L18.0075 34.1716C18.7444 34.663 19.7168 34.611 20.3972 34.044L29.75 26.25" stroke="#D6C7DC"/>
<path fill-rule="evenodd" clip-rule="evenodd" d="M24.504 21.5392C23.9006 20.7312 22.79 20.4989 21.9133 20.9971L17.0749 23.747C16.2923 24.1918 15.309 24.059 14.6724 23.4224L13.7986 22.5486C12.967 21.717 13.029 20.3509 13.9325 19.598L22.1937 12.7136C22.5532 12.414 23.0062 12.25 23.4741 12.25H25.7779C26.0884 12.25 26.3946 12.3223 26.6723 12.4611L32.1444 15.1972C32.822 15.536 33.25 16.2285 33.25 16.9861L33.25 27.2296C33.25 29.1537 30.7989 29.968 29.6476 28.4264L24.504 21.5392Z" stroke="#D6C7DC"/>
<path d="M1.75 29.75V14" stroke="#D6C7DC" stroke-linecap="round"/>
<path d="M1.75 29.75V14" stroke="#D6C7DC" stroke-linecap="round"/>
<path d="M40.25 29.75V14" stroke="#D6C7DC" stroke-linecap="round"/>
</svg>
