<svg width="42" height="42" viewBox="0 0 42 42" fill="none" xmlns="http://www.w3.org/2000/svg">
<path fill-rule="evenodd" clip-rule="evenodd" d="M9.99406 10.4999H37.2621L34.6652 26.2499H12.591L9.99406 10.4999Z" stroke="#D6C7DC" stroke-linecap="round" stroke-linejoin="round"/>
<path fill-rule="evenodd" clip-rule="evenodd" d="M15.75 35C16.7165 35 17.5 34.2165 17.5 33.25C17.5 32.2835 16.7165 31.5 15.75 31.5C14.7835 31.5 14 32.2835 14 33.25C14 34.2165 14.7835 35 15.75 35Z" stroke="#D6C7DC"/>
<path fill-rule="evenodd" clip-rule="evenodd" d="M31.5 35C32.4665 35 33.25 34.2165 33.25 33.25C33.25 32.2835 32.4665 31.5 31.5 31.5C30.5335 31.5 29.75 32.2835 29.75 33.25C29.75 34.2165 30.5335 35 31.5 35Z" stroke="#D6C7DC"/>
<path d="M12.25 10.5H5.25" stroke="#D6C7DC" stroke-linecap="round"/>
</svg>
