<svg width="42" height="42" viewBox="0 0 42 42" fill="none" xmlns="http://www.w3.org/2000/svg">
<path d="M21 38.5C23.7682 38.5 26.0361 36.3575 26.2357 33.6402C28.2983 35.4205 31.4169 35.3319 33.3743 33.3744C35.3318 31.4169 35.4204 28.2983 33.6401 26.2357C36.3574 26.0361 38.5 23.7683 38.5 21C38.5 18.2317 36.3575 15.9639 33.6402 15.7643C35.4205 13.7017 35.3319 10.5831 33.3744 8.62564C31.4169 6.66817 28.2983 6.57959 26.2357 8.35989C26.0361 5.64257 23.7683 3.5 21 3.5C18.2317 3.5 15.9639 5.64253 15.7643 8.35981C13.7017 6.57954 10.5831 6.66814 8.62564 8.6256C6.66817 10.5831 6.57959 13.7017 8.35989 15.7643C5.64258 15.9639 3.5 18.2317 3.5 21C3.5 23.7682 5.64253 26.0361 8.3598 26.2357C6.57955 28.2983 6.66814 31.4169 8.6256 33.3743C10.5831 35.3318 13.7017 35.4204 15.7643 33.6401C15.9639 36.3574 18.2317 38.5 21 38.5Z" stroke="#D6C7DC" stroke-linecap="round"/>
<path fill-rule="evenodd" clip-rule="evenodd" d="M21 24.5C19.067 24.5 17.5 22.933 17.5 21C17.5 19.067 19.067 17.5 21 17.5C22.933 17.5 24.5 19.067 24.5 21C24.5 22.933 22.933 24.5 21 24.5Z" stroke="#D6C7DC"/>
</svg>
