<svg width="7" height="15" viewBox="0 0 7 15" fill="none" xmlns="http://www.w3.org/2000/svg">
<path d="M4.99538 8.34905L1.03245 4.27645C0.999822 4.24363 0.974027 4.20466 0.956558 4.16181C0.939089 4.11895 0.930292 4.07306 0.930676 4.02678C0.931061 3.9805 0.940619 3.93476 0.958797 3.8922C0.976976 3.84964 1.00342 3.81111 1.03658 3.77884C1.06975 3.74657 1.10899 3.72119 1.15203 3.70418C1.19507 3.68717 1.24106 3.67887 1.28733 3.67975C1.3336 3.68063 1.37923 3.69068 1.42159 3.70931C1.46396 3.72795 1.5022 3.7548 1.53412 3.78831L5.73412 8.10498C5.79769 8.17032 5.83325 8.25788 5.83325 8.34905C5.83325 8.44021 5.79769 8.52777 5.73412 8.59311L1.53412 12.9098C1.5022 12.9433 1.46396 12.9701 1.42159 12.9888C1.37923 13.0074 1.3336 13.0175 1.28733 13.0183C1.24106 13.0192 1.19507 13.0109 1.15203 12.9939C1.10899 12.9769 1.06975 12.9515 1.03658 12.9193C1.00342 12.887 0.976976 12.8484 0.958797 12.8059C0.940619 12.7633 0.931061 12.7176 0.930676 12.6713C0.930292 12.625 0.939089 12.5791 0.956558 12.5363C0.974027 12.4934 0.999822 12.4545 1.03245 12.4216L4.99538 8.34905Z" fill="#7C7B7B"/>
</svg>
