<svg width="34" height="34" viewBox="0 0 34 34" fill="none" xmlns="http://www.w3.org/2000/svg">
<g clip-path="url(#clip0_29_5017)">
<path d="M33.2693 21.3253C30.7295 18.6093 23.7946 19.7159 22.1342 19.917C19.6924 17.5027 18.032 14.5855 17.446 13.5797C18.325 10.8637 18.9108 8.14765 19.0087 5.23072C19.0087 2.71581 18.032 0 15.2969 0C14.3202 0 13.441 0.603367 12.9526 1.40808C11.7806 3.52074 12.2688 7.74563 14.1247 12.0711C13.0504 15.1893 12.0736 18.2071 9.33865 23.5386C6.50609 24.7453 0.547829 27.5621 0.0593907 30.58C-0.135899 31.4851 0.157035 32.3908 0.840763 33.0947C1.52449 33.6983 2.40351 34 3.28274 34C6.89667 34 10.413 28.8701 12.8549 24.5442C14.9061 23.8402 18.1295 22.8342 21.3528 22.2306C25.162 25.6508 28.483 26.1536 30.2413 26.1536C32.5854 26.1536 33.4646 25.1478 33.7576 24.2423C34.2458 23.2367 33.9528 22.13 33.2693 21.3253ZM30.8271 23.0355C30.7295 23.7397 29.8507 24.4436 28.2877 24.0414C26.4318 23.5386 24.7715 22.6331 23.3064 21.4259C24.5762 21.2246 27.4085 20.9229 29.4599 21.3253C30.2413 21.5265 31.0226 22.0295 30.8271 23.0355ZM14.5155 2.31335C14.7108 2.01166 15.004 1.81054 15.2969 1.81054C16.1759 1.81054 16.3712 2.91693 16.3712 3.82242C16.2736 5.93509 15.8828 8.04731 15.1993 10.0592C13.7339 6.03543 14.0271 3.21862 14.5155 2.31335ZM14.3202 21.8284C15.1016 20.2189 16.1761 17.4021 16.5667 16.195C17.4457 17.7036 18.9108 19.5146 19.6924 20.3193C19.6924 20.4201 16.6644 21.0234 14.3202 21.8284ZM8.55727 25.8521C6.3108 29.6746 3.96647 32.0887 2.69666 32.0887C2.50137 32.0887 2.30586 31.9881 2.11057 31.8876C1.81743 31.6862 1.71978 31.3845 1.81743 30.9823C2.11057 29.574 4.6502 27.6627 8.55727 25.8521Z" fill="#1E1E1E"/>
</g>
<defs>
<clipPath id="clip0_29_5017">
<rect width="34" height="34" fill="white"/>
</clipPath>
</defs>
</svg>
