<svg width="150" height="150" viewBox="0 0 150 150" fill="none" xmlns="http://www.w3.org/2000/svg">
<path d="M75 150C116.421 150 150 116.421 150 75C150 33.5786 116.421 0 75 0C33.5786 0 0 33.5786 0 75C0 116.421 33.5786 150 75 150Z" fill="white"/>
<path d="M43.8753 22.9108L44.8221 24.5582L46.2683 23.727C46.8558 23.3894 47.3863 23.2926 47.8598 23.4367C48.3937 23.597 48.8643 24.0316 49.2716 24.7404C49.6239 25.3534 49.7459 25.9203 49.6375 26.4413C49.5338 26.985 49.1819 27.4294 48.5817 27.7743L46.0148 29.2496L42.1616 22.5451L46.2035 20.2222L46.787 21.2374L43.8753 22.9108ZM45.4056 25.5734L46.5615 27.5848L47.6055 26.9848C48.0014 26.7573 48.2259 26.505 48.2791 26.2281C48.3269 25.9713 48.2554 25.6769 48.0646 25.3449C47.8811 25.0256 47.665 24.827 47.4164 24.7491C47.1613 24.6748 46.8486 24.7441 46.4783 24.9569L45.4056 25.5734Z" fill="#1E1E1E"/>
<path d="M51.2691 26.3809L50.8257 25.3073C51.2075 25.2365 51.4451 25.008 51.5384 24.6216C51.6096 24.3156 51.5849 23.9306 51.4644 23.4666C51.3507 22.9998 51.1251 22.3579 50.7876 21.5409L49.6372 18.7556L53.5669 17.1324L56.4953 24.2222L55.3002 24.7159L52.8152 18.6997L51.2656 19.3397L52.1316 21.4363C52.5639 22.4829 52.813 23.2297 52.8791 23.6766C53.019 24.4172 52.9652 25.0045 52.7177 25.4387C52.5154 25.791 52.2117 26.0508 51.8066 26.2182C51.6783 26.2712 51.4992 26.3254 51.2691 26.3809Z" fill="#1E1E1E"/>
<path d="M59.1882 21.6168L59.1507 23.2994L57.8727 23.634L58.1576 15.5934L59.3504 15.2812L63.5386 22.1508L62.2606 22.4853L61.4034 21.0369L59.1882 21.6168ZM59.1802 20.4126L60.8203 19.9832L59.1639 17.0029L59.1802 20.4126Z" fill="#1E1E1E"/>
<path d="M66.2492 15.0837L67.148 21.561L65.8612 21.7395L64.802 14.1064L68.8367 13.5465L68.9971 14.7024L66.2492 15.0837Z" fill="#1E1E1E"/>
<path d="M71.6785 20.6256C70.8793 19.9368 70.464 18.8035 70.4326 17.2259C70.4012 15.6482 70.7711 14.4994 71.5422 13.7793C72.0251 13.3293 72.6481 13.0966 73.4112 13.0814C74.1744 13.0663 74.8062 13.2739 75.3066 13.7044C76.1057 14.3932 76.521 15.5264 76.5524 17.1041C76.5838 18.6817 76.2139 19.8306 75.4428 20.5507C74.9599 21.0007 74.3369 21.2333 73.5738 21.2485C72.8106 21.2637 72.1789 21.0561 71.6785 20.6256ZM71.7864 17.1989C71.8081 18.2849 72.0294 19.077 72.4504 19.5752C72.7435 19.9217 73.1103 20.0906 73.5505 20.0818C73.9908 20.073 74.3505 19.8897 74.6297 19.5318C75.0306 19.0173 75.2202 18.217 75.1986 17.131C75.1771 16.0524 74.9558 15.2603 74.5347 14.7548C74.2415 14.4083 73.8747 14.2394 73.4345 14.2482C72.9942 14.2569 72.6345 14.4403 72.3553 14.7982C71.9546 15.32 71.765 16.1203 71.7864 17.1989Z" fill="#1E1E1E"/>
<path d="M80.8749 14.7354L79.0037 14.5292L79.1315 13.3692L84.1652 13.9241L84.0373 15.084L82.1661 14.8777L81.4497 21.3777L80.1584 21.2354L80.8749 14.7354Z" fill="#1E1E1E"/>
<path d="M86.8735 14.3886L89.7378 15.0488C90.3314 15.1857 90.7531 15.4636 91.003 15.8827C91.2346 16.2826 91.2854 16.765 91.1552 17.33C91.0315 17.8664 90.7948 18.2562 90.445 18.4995C90.2393 18.6404 90.0146 18.7166 89.7709 18.7282L89.7585 18.7819C90.0298 18.9122 90.2468 19.0978 90.4097 19.3387C90.6827 19.7556 90.7458 20.2823 90.5991 20.9188C90.4392 21.6125 90.1109 22.1055 89.6142 22.3977C89.4223 22.5117 89.2091 22.5868 88.9748 22.6232C88.7421 22.6524 88.5526 22.6577 88.4062 22.639C88.2687 22.6148 88.0927 22.578 87.8781 22.5286L85.1425 21.898L86.8735 14.3886ZM87.8797 15.8068L87.4346 17.7378L88.5932 18.0048C88.9436 18.0856 89.2165 18.0619 89.4117 17.9337C89.5998 17.8038 89.7252 17.603 89.7879 17.3312C89.8587 17.0237 89.8496 16.7693 89.7604 16.5679C89.6366 16.321 89.3852 16.1538 89.0061 16.0664L87.8797 15.8068ZM87.1774 18.8535L86.6681 21.0634L87.8803 21.3428C88.3022 21.4401 88.6284 21.4136 88.8589 21.2633C89.0789 21.1258 89.2326 20.8674 89.32 20.4884C89.404 20.1237 89.3773 19.8313 89.2397 19.6113C89.1164 19.3946 88.8402 19.2368 88.4111 19.1378L87.1774 18.8535Z" fill="#1E1E1E"/>
<path d="M92.41 23.3414C91.9244 22.4048 91.9605 21.1984 92.5183 19.7223C93.0761 18.2462 93.8468 17.3174 94.8304 16.9359C95.4461 16.6978 96.1109 16.7136 96.8249 16.9834C97.539 17.2532 98.0481 17.681 98.3525 18.2667C98.838 19.2034 98.8019 20.4098 98.2442 21.8859C97.6864 23.362 96.9157 24.2908 95.932 24.6723C95.3164 24.9104 94.6515 24.8946 93.9375 24.6248C93.2235 24.355 92.7143 23.9272 92.41 23.3414ZM93.785 20.2009C93.401 21.217 93.3118 22.0346 93.5173 22.6536C93.6605 23.0843 93.9381 23.3775 94.35 23.5331C94.7619 23.6888 95.164 23.6524 95.5563 23.4241C96.1198 23.0956 96.5935 22.4234 96.9775 21.4073C97.3588 20.398 97.4481 19.5805 97.2452 18.9546C97.102 18.5239 96.8244 18.2307 96.4125 18.075C96.0005 17.9194 95.5984 17.9557 95.2061 18.1841C94.6401 18.5194 94.1664 19.1917 93.785 20.2009Z" fill="#1E1E1E"/>
<path d="M102.811 19.7853L104.998 20.9725C105.385 21.1826 105.688 21.4014 105.907 21.6288C106.136 21.8533 106.284 22.1424 106.35 22.496C106.443 23.0476 106.325 23.6266 105.996 24.2329C105.611 24.9424 105.125 25.3841 104.538 25.558C103.98 25.7231 103.36 25.62 102.676 25.2488L101.631 24.6815L100.276 27.1776L99.1343 26.5577L102.811 19.7853ZM103.396 21.4307L102.188 23.6559L103.088 24.1445C103.488 24.3616 103.827 24.4207 104.106 24.3217C104.39 24.1999 104.619 23.9778 104.794 23.6553C104.994 23.2876 105.06 22.973 104.993 22.7113C104.935 22.4039 104.706 22.1416 104.306 21.9245L103.396 21.4307Z" fill="#1E1E1E"/>
<path d="M107.109 28.8195L112.568 25.8216L113.603 26.575L109.056 32.8172L108.004 32.0507L111.323 27.494L105.864 30.4918L104.829 29.7384L109.376 23.4963L110.428 24.2627L107.109 28.8195Z" fill="#1E1E1E"/>
<path d="M116.41 30.6147L115.046 29.3179L115.85 28.472L119.521 31.9605L118.717 32.8064L117.352 31.5096L112.847 36.2499L111.906 35.3551L116.41 30.6147Z" fill="#1E1E1E"/>
<path d="M119.741 37.0617L121.642 39.3843L120.743 40.1195L118.843 37.7968L117.147 39.184L119.339 41.8627L118.44 42.5979L115.43 38.9189L121.364 34.0639L124.312 37.6666L123.413 38.4018L121.284 35.7994L119.741 37.0617Z" fill="#1E1E1E"/>
<path d="M119.064 43.232L120.044 42.5987C120.183 42.963 120.452 43.1562 120.851 43.1782C121.166 43.1929 121.542 43.0985 121.979 42.8951C122.419 42.6978 123.013 42.3582 123.759 41.8762L126.301 40.2331L128.62 43.8207L122.147 48.0032L121.442 46.9121L126.934 43.363L126.02 41.9483L124.106 43.1851C123.151 43.8025 122.458 44.1845 122.029 44.331C121.322 44.6039 120.732 44.6575 120.258 44.4919C119.873 44.3561 119.561 44.1033 119.322 43.7335C119.247 43.6163 119.161 43.4492 119.064 43.232Z" fill="#1E1E1E"/>
<path d="M130.716 47.8599L128.041 49.138L128.67 50.4558C128.973 51.0899 129.034 51.6411 128.852 52.1094C128.646 52.6459 128.186 53.0846 127.473 53.4255C126.819 53.7379 126.22 53.8172 125.676 53.6634C125.138 53.5228 124.714 53.1288 124.405 52.4815L123.222 50.0044L130.157 46.6907L130.716 47.8599ZM126.99 49.6398L124.83 50.6718L125.294 51.6428C125.392 51.8476 125.488 52.0048 125.581 52.1145C125.683 52.2277 125.819 52.3087 125.989 52.3576C126.243 52.4309 126.552 52.3808 126.915 52.2072C127.272 52.0368 127.498 51.8313 127.594 51.5907C127.693 51.3404 127.65 51.0203 127.464 50.6306L126.99 49.6398Z" fill="#1E1E1E"/>
<path d="M129.701 56.1992L126.417 57.2708L126.014 56.0367L133.335 53.6477L133.738 54.8819L130.809 55.8374L131.574 58.1802L134.502 57.2246L134.905 58.4587L127.584 60.8476L127.181 59.6135L130.465 58.5419L129.701 56.1992Z" fill="#1E1E1E"/>
<path d="M130.029 64.2191L128.355 64.041L128.129 62.7395L136.117 63.6962L136.329 64.9109L129.133 68.5096L128.906 67.2081L130.421 66.4751L130.029 64.2191ZM131.229 64.3119L131.52 65.9822L134.629 64.581L131.229 64.3119Z" fill="#1E1E1E"/>
<path d="M132.4 74.3284L132.365 73.5255L129.427 72.1336L129.359 70.5828L132.461 72.1989C132.538 71.7768 132.688 71.4323 132.911 71.1654C133.289 70.7301 133.87 70.4952 134.654 70.4609C135.373 70.4294 135.957 70.5838 136.405 70.9241C136.625 71.0907 136.792 71.2891 136.905 71.5193C137.018 71.7567 137.086 71.9595 137.108 72.1275C137.137 72.3025 137.159 72.5403 137.172 72.8409L137.285 75.4146L129.586 75.752L129.529 74.4542L132.4 74.3284ZM136.062 74.1678L136.011 72.991C135.988 72.4704 135.811 72.1219 135.48 71.9454C135.284 71.8291 135.017 71.7783 134.68 71.7931C134.343 71.8079 134.082 71.8928 133.898 72.0478C133.621 72.2656 133.494 72.6422 133.517 73.1774L133.566 74.2773L136.062 74.1678Z" fill="#1E1E1E"/>
<path d="M129.677 81.4132C130.489 80.7402 131.676 80.52 133.237 80.7524C134.798 80.9848 135.869 81.5413 136.45 82.4218C136.813 82.973 136.938 83.6261 136.826 84.3811C136.713 85.1361 136.403 85.7243 135.895 86.1458C135.083 86.8188 133.896 87.039 132.335 86.8066C130.775 86.5742 129.704 86.0177 129.122 85.1372C128.759 84.586 128.634 83.9329 128.746 83.1779C128.859 82.4229 129.169 81.8347 129.677 81.4132ZM133.037 82.0917C131.963 81.9317 131.145 82.0177 130.584 82.3496C130.193 82.5808 129.965 82.9142 129.9 83.3498C129.836 83.7853 129.956 84.1706 130.263 84.5056C130.703 84.9867 131.46 85.3073 132.535 85.4673C133.602 85.6262 134.42 85.5402 134.988 85.2094C135.379 84.9782 135.607 84.6448 135.672 84.2092C135.736 83.7736 135.616 83.3884 135.309 83.0534C134.862 82.5712 134.104 82.2506 133.037 82.0917Z" fill="#1E1E1E"/>
<path d="M135.347 90.8363L134.65 93.2248C134.527 93.6475 134.378 93.99 134.202 94.2522C134.031 94.5234 133.78 94.7292 133.448 94.8695C132.929 95.0774 132.338 95.0847 131.676 94.8916C130.901 94.6655 130.366 94.284 130.072 93.7471C129.792 93.2374 129.761 92.6092 129.979 91.8623L130.312 90.7209L127.585 89.9256L127.949 88.6785L135.347 90.8363ZM133.863 91.7566L131.432 91.0476L131.146 92.0305C131.018 92.4674 131.032 92.8117 131.188 93.0636C131.367 93.3146 131.633 93.4915 131.985 93.5943C132.387 93.7114 132.709 93.7096 132.95 93.589C133.238 93.4665 133.446 93.1869 133.573 92.7501L133.863 91.7566Z" fill="#1E1E1E"/>
<path d="M131.464 98.5595L125.448 96.0746L125.941 94.8794L133.031 97.8078L131.483 101.555L130.41 101.112L131.464 98.5595Z" fill="#1E1E1E"/>
<path d="M125.193 100.766L123.991 99.582L124.625 98.4194L130.297 104.153L129.705 105.238L121.814 103.573L122.448 102.411L124.094 102.781L125.193 100.766ZM126.077 101.587L125.264 103.079L128.577 103.919L126.077 101.587Z" fill="#1E1E1E"/>
<path d="M122.53 108.601L119.765 106.562L120.531 105.523L126.696 110.069L125.93 111.109L123.464 109.29L122.009 111.263L124.475 113.081L123.708 114.121L117.543 109.574L118.31 108.535L121.075 110.574L122.53 108.601Z" fill="#1E1E1E"/>
<path d="M116.37 114.154L118.508 119.99L117.609 120.897L112.133 115.475L113.048 114.552L117.045 118.51L114.907 112.674L115.805 111.767L121.281 117.189L120.367 118.113L116.37 114.154Z" fill="#1E1E1E"/>
<path d="M112.047 119.141L111.029 119.94C110.797 119.644 110.552 119.434 110.294 119.308C109.799 119.059 109.314 119.122 108.839 119.495C108.572 119.704 108.41 119.939 108.352 120.2C108.273 120.553 108.377 120.912 108.663 121.277C108.964 121.66 109.288 121.84 109.637 121.819C109.854 121.809 110.101 121.694 110.379 121.476L110.927 121.046L111.651 121.968L111.19 122.33C110.952 122.516 110.801 122.7 110.738 122.881C110.643 123.19 110.716 123.498 110.957 123.805C111.193 124.107 111.468 124.271 111.779 124.298C112.033 124.324 112.288 124.236 112.543 124.036C112.804 123.831 112.965 123.588 113.025 123.307C113.103 122.917 112.998 122.55 112.709 122.206L113.726 121.407C114.136 121.929 114.354 122.47 114.381 123.029C114.392 123.723 113.997 124.385 113.197 125.013C112.617 125.468 112.051 125.678 111.499 125.642C110.932 125.6 110.43 125.301 109.993 124.744C109.643 124.298 109.489 123.857 109.531 123.421C109.552 123.198 109.636 122.982 109.782 122.774L109.755 122.739C109.552 122.851 109.291 122.906 108.971 122.905C108.45 122.873 107.964 122.571 107.513 121.996C107.04 121.393 106.875 120.759 107.018 120.094C107.147 119.553 107.53 119.032 108.167 118.532C108.544 118.236 108.907 118.036 109.256 117.931C109.604 117.826 109.979 117.832 110.38 117.948C110.952 118.117 111.508 118.515 112.047 119.141Z" fill="#1E1E1E"/>
<path d="M105.233 122.811L104.805 121.183L105.941 120.51L107.883 128.316L106.823 128.945L100.904 123.497L102.04 122.823L103.263 123.979L105.233 122.811ZM105.572 123.966L104.114 124.831L106.527 127.239L105.572 123.966Z" fill="#1E1E1E"/>
<path d="M98.1035 126.184L95.7943 127.163L98.3446 133.18L97.1495 133.686L94.5991 127.67L93.8091 128.005L92.7263 125.31L93.7897 124.859L94.4681 126.459L98.8435 124.604L101.849 131.694L100.654 132.201L98.1035 126.184Z" fill="#1E1E1E"/>
<path d="M90.8424 129.854L89.7046 135.965L88.4689 136.287L86.525 128.829L87.7821 128.502L89.2011 133.946L90.3388 127.835L91.5746 127.513L93.5184 134.97L92.2614 135.298L90.8424 129.854Z" fill="#1E1E1E"/>
<path d="M80.6285 132.616L81.4262 132.519L82.5872 129.483L84.128 129.295L82.7563 132.512C83.1831 132.556 83.5381 132.679 83.8215 132.882C84.2847 133.224 84.5637 133.786 84.6586 134.565C84.7455 135.279 84.6366 135.873 84.332 136.346C84.1828 136.579 83.9979 136.76 83.7772 136.891C83.5492 137.022 83.3523 137.105 83.1865 137.14C83.0143 137.183 82.7788 137.223 82.4801 137.259L79.9229 137.57L78.9917 129.921L80.2813 129.764L80.6285 132.616ZM81.0714 136.255L82.2408 136.113C82.758 136.05 83.0919 135.846 83.2423 135.503C83.3431 135.298 83.3731 135.029 83.3323 134.693C83.2915 134.358 83.1867 134.105 83.0179 133.933C82.7794 133.674 82.3941 133.577 81.8623 133.641L80.7695 133.774L81.0714 136.255Z" fill="#1E1E1E"/>
<path d="M43.0807 121.166L42.3576 120.703L43.972 118.285L44.9267 118.897L43.9883 120.362L47.5756 122.66L48.514 121.196L49.4687 121.807L47.9471 124.284L47.4743 123.981C46.6517 124.422 45.9729 124.937 45.438 125.527C44.9211 126.102 44.4232 126.764 43.944 127.512L43.0472 128.911L39.5526 126.672L43.0807 121.166ZM41.2667 126.384L42.6757 127.287L43.1746 126.509C43.6379 125.786 44.0522 125.227 44.4176 124.834C44.9503 124.234 45.5768 123.698 46.2971 123.227L44.1652 121.861L41.2667 126.384Z" fill="#1E1E1E"/>
<path d="M40.7565 118.497C40.8882 119.544 40.4372 120.663 39.4034 121.856C38.3696 123.048 37.3253 123.653 36.2703 123.671C35.6103 123.681 34.992 123.436 34.4153 122.936C33.8386 122.436 33.5088 121.859 33.4258 121.204C33.2941 120.157 33.7451 119.038 34.7789 117.846C35.8127 116.653 36.857 116.048 37.9119 116.031C38.5719 116.02 39.1903 116.265 39.7669 116.765C40.3436 117.265 40.6735 117.842 40.7565 118.497ZM38.3803 120.968C39.092 120.148 39.4584 119.412 39.4796 118.76C39.4942 118.306 39.3351 117.935 39.0024 117.646C38.6697 117.358 38.2798 117.253 37.8328 117.332C37.1905 117.445 36.5136 117.912 35.8019 118.733C35.0951 119.548 34.7287 120.284 34.7026 120.941C34.6881 121.395 34.8471 121.766 35.1798 122.055C35.5125 122.343 35.9024 122.448 36.3495 122.369C36.9966 122.251 37.6735 121.784 38.3803 120.968Z" fill="#1E1E1E"/>
<path d="M29.7822 116.488L31.2054 115.239L30.1089 113.989C29.6635 113.482 29.4646 112.983 29.5122 112.492C29.5639 111.938 29.8959 111.393 30.5082 110.856C31.0378 110.391 31.5677 110.16 32.0979 110.164C32.6496 110.158 33.1529 110.415 33.608 110.933L35.5541 113.151L29.762 118.234L26.6976 114.742L27.5746 113.972L29.7822 116.488ZM32.0825 114.469L33.8201 112.944L33.0286 112.042C32.7285 111.7 32.4379 111.53 32.1569 111.533C31.8966 111.537 31.623 111.664 31.3362 111.916C31.0604 112.158 30.9088 112.408 30.8816 112.667C30.8592 112.93 30.9884 113.222 31.2692 113.542L32.0825 114.469Z" fill="#1E1E1E"/>
<path d="M24.9628 112.455L23.5447 110.415C23.2936 110.054 23.1215 109.723 23.0282 109.422C22.9247 109.119 22.9225 108.794 23.0215 108.449C23.186 107.915 23.5511 107.451 24.1168 107.058C24.7788 106.598 25.4108 106.422 26.0127 106.53C26.584 106.633 27.0913 107.003 27.5348 107.641L28.2125 108.616L30.5415 106.997L31.282 108.062L24.9628 112.455ZM25.1793 110.725L27.2556 109.281L26.672 108.442C26.4126 108.069 26.1362 107.864 25.8427 107.827C25.5353 107.808 25.2312 107.904 24.9302 108.113C24.5872 108.351 24.3867 108.602 24.3288 108.866C24.2432 109.166 24.33 109.503 24.5894 109.876L25.1793 110.725Z" fill="#1E1E1E"/>
<path d="M18.2394 101.039L17.6679 99.8695L24.6035 96.4788L25.1751 97.6479L18.2394 101.039ZM20.1189 104.883L22.7941 103.575L22.1789 102.317C21.8495 101.643 21.7741 101.07 21.9526 100.598C22.1679 100.051 22.6389 99.5999 23.3655 99.2447C23.993 98.9379 24.5806 98.8593 25.1284 99.0088C25.6698 99.1452 26.1084 99.5569 26.4442 100.244L27.6262 102.661L20.6905 106.052L20.1189 104.883ZM23.8444 103.062L26.0043 102.006L25.5296 101.035C25.3359 100.638 25.0979 100.403 24.8158 100.328C24.5501 100.253 24.2422 100.301 23.8921 100.473C23.5487 100.641 23.3248 100.852 23.2206 101.108C23.123 101.36 23.1694 101.681 23.36 102.071L23.8444 103.062Z" fill="#1E1E1E"/>
<path d="M14.4806 96.8449L14.19 95.9246C14.3786 95.842 14.5344 95.7161 14.6573 95.547C14.8181 95.3275 14.8544 95.0783 14.7663 94.7994C14.6783 94.5205 14.5054 94.3374 14.2478 94.2501C14.05 94.1822 13.8502 94.1686 13.6484 94.2094L13.3577 93.289C13.7056 93.2251 14.0463 93.2479 14.3799 93.3573C14.9458 93.5466 15.3256 93.9481 15.5193 94.5616C15.7131 95.1752 15.6327 95.722 15.2783 96.202C15.068 96.4831 14.8021 96.6974 14.4806 96.8449ZM21.5705 94.0194L15.4335 93.1971L15.0504 91.9839L22.3714 89.672L22.7611 90.9061L17.4168 92.5938L23.5537 93.4162L23.9368 94.6293L16.6158 96.9412L16.2261 95.7071L21.5705 94.0194Z" fill="#1E1E1E"/>
<path d="M19.4094 87.5228L18.2645 87.7489L17.8166 85.4808L18.9615 85.2547L19.4094 87.5228Z" fill="#1E1E1E"/>
<path d="M17.3089 81.1733L17.3589 81.9533L20.8087 81.7321L20.8918 83.0285L13.2013 83.5218L13.1181 82.2254L16.1943 82.028L16.1429 81.226C14.9255 81.1644 14.0185 80.8401 13.4219 80.2533C12.951 79.7907 12.6911 79.1786 12.6422 78.4169C12.5933 77.6551 12.7729 77.0148 13.1809 76.4959C13.8337 75.6671 14.9475 75.2022 16.5223 75.1012C18.097 75.0002 19.2611 75.319 20.0145 76.0576C20.4854 76.5201 20.7453 77.1323 20.7941 77.894C20.843 78.6557 20.6634 79.296 20.2555 79.815C19.6286 80.5906 18.6464 81.0434 17.3089 81.1733ZM16.8274 79.8583C17.9114 79.7888 18.6929 79.5327 19.172 79.0902C19.5052 78.782 19.6578 78.4081 19.6296 77.9687C19.6014 77.5292 19.4023 77.178 19.0325 76.9149C18.5008 76.5371 17.6929 76.383 16.6089 76.4525C15.5323 76.5216 14.7507 76.7776 14.2643 77.2207C13.9311 77.5289 13.7786 77.9027 13.8068 78.3422C13.8349 78.7816 14.034 79.1329 14.4039 79.396C14.9429 79.7733 15.7507 79.9274 16.8274 79.8583Z" fill="#1E1E1E"/>
<path d="M14.1427 71.0335L20.6619 71.5466L20.56 72.8416L12.8775 72.237L13.1971 68.1762L14.3604 68.2678L14.1427 71.0335Z" fill="#1E1E1E"/>
<path d="M21.0488 67.9397L19.5776 67.729L19.7462 66.552L21.2174 66.7627L21.0488 67.9397Z" fill="#1E1E1E"/>
<path d="M13.9532 63.4325L14.5183 61.0095C14.6184 60.5807 14.749 60.2306 14.9103 59.9592C15.0661 59.679 15.3056 59.4598 15.6289 59.3016C16.1361 59.0657 16.7257 59.0261 17.3975 59.1828C18.1837 59.3662 18.7385 59.7179 19.0619 60.238C19.3688 60.7316 19.4338 61.3573 19.2571 62.1149L18.987 63.2728L21.7531 63.918L21.458 65.1831L13.9532 63.4325ZM15.3847 62.4325L17.8506 63.0077L18.0832 62.0106C18.1865 61.5675 18.1535 61.2244 17.9841 60.9814C17.7916 60.7406 17.5166 60.5784 17.1593 60.4951C16.7518 60.4001 16.4308 60.4194 16.1961 60.553C15.9153 60.691 15.7231 60.9816 15.6198 61.4247L15.3847 62.4325Z" fill="#1E1E1E"/>
<path d="M24.723 55.3345L24.2583 56.5476L23.2303 56.1538L23.1712 56.308C22.9953 56.7672 22.7711 57.1371 22.4985 57.4178C22.1176 57.8378 21.6395 58.0908 21.0642 58.177C20.4931 58.2726 19.8615 58.1878 19.1692 57.9227C18.1275 57.5236 17.4577 56.933 17.16 56.1509C16.9263 55.5505 16.963 54.8494 17.2702 54.0475L17.3293 53.8933L16.1881 53.4562L16.6528 52.2431L17.7939 52.6802L17.853 52.526C18.1602 51.7241 18.6013 51.1779 19.1763 50.8873C19.9203 50.5043 20.8133 50.5123 21.855 50.9113C22.5472 51.1765 23.0739 51.5354 23.4349 51.9881C23.8054 52.4365 23.9921 52.9443 23.995 53.5112C24.0103 53.9022 23.93 54.3273 23.7541 54.7865L23.695 54.9407L24.723 55.3345ZM18.7872 53.0725L22.6938 54.569C22.926 54.0449 22.8961 53.5383 22.604 53.0491C22.3944 52.6937 21.9845 52.3992 21.3746 52.1656C20.7646 51.9319 20.2655 51.8704 19.8773 51.981C19.3685 52.1398 19.0196 52.4659 18.8305 52.9594L18.7872 53.0725ZM18.3304 54.265L18.2871 54.3781C18.0981 54.8716 18.1398 55.3474 18.4123 55.8054C18.6272 56.1471 19.0397 56.4348 19.6497 56.6684C20.2597 56.9021 20.7614 56.9568 21.1548 56.8324C21.6989 56.6636 22.0597 56.3066 22.237 55.7615L18.3304 54.265Z" fill="#1E1E1E"/>
<path d="M30.6767 42.0778C31.8355 42.0778 32.775 41.1384 32.775 39.9795C32.775 38.8207 31.8355 37.8812 30.6767 37.8812C29.5178 37.8812 28.5784 38.8207 28.5784 39.9795C28.5784 41.1384 29.5178 42.0778 30.6767 42.0778Z" fill="#1E1E1E"/>
<path d="M69.1454 134.403C70.3043 134.403 71.2437 133.463 71.2437 132.304C71.2437 131.146 70.3043 130.206 69.1454 130.206C67.9866 130.206 67.0471 131.146 67.0471 132.304C67.0471 133.463 67.9866 134.403 69.1454 134.403Z" fill="#1E1E1E"/>
<path d="M50.4134 55.6324C51.8826 55.6324 53.0179 56.0999 53.8192 57.0348C54.6206 57.9697 55.0881 59.0382 55.0881 60.3739C55.0881 61.7095 54.6206 62.778 53.8192 63.6462C53.0179 64.5811 51.8826 64.9818 50.4134 64.9818C48.9442 64.9818 47.7421 64.5811 46.9407 63.6462C46.0726 62.778 45.6719 61.7095 45.6719 60.3739C45.6719 59.0382 46.0726 57.9697 46.9407 57.0348C47.7421 56.0999 48.9442 55.6324 50.4134 55.6324ZM50.4134 77.0025C51.8826 77.0025 53.0179 77.47 53.8192 78.4049C54.6206 79.3399 55.0881 80.4084 55.0881 81.744C55.0881 83.0797 54.6206 84.1482 53.8192 85.0163C53.0179 85.9513 51.8826 86.352 50.4134 86.352C48.9442 86.352 47.7421 85.9513 46.9407 85.0163C46.0726 84.1482 45.6719 83.0797 45.6719 81.744C45.6719 80.4084 46.0726 79.3399 46.9407 78.4049C47.7421 77.47 48.9442 77.0025 50.4134 77.0025Z" fill="#1E1E1E"/>
<path d="M74.9473 34.5294C75.6819 34.6629 76.2829 35.0636 76.8172 35.7314C77.3514 36.3993 77.5518 37.1339 77.4182 37.8017C77.2847 38.4027 77.1511 39.0037 76.884 39.538C76.6168 40.139 76.2161 40.8736 75.6151 41.7418C75.0809 42.5432 74.747 43.1442 74.5466 43.5449C74.3463 43.9456 74.2127 44.2795 74.2127 44.6802L72.8103 44.4131C72.8103 44.0124 72.8103 43.6117 72.8103 43.211C72.7435 42.8103 72.5432 42.1425 72.276 41.2075C71.8753 40.2058 71.675 39.4044 71.6082 38.8034C71.5414 38.2024 71.5414 37.6013 71.675 37.0003C71.8086 36.2657 72.2092 35.6647 72.8771 35.1304C73.5449 34.6629 74.2127 34.4626 74.9473 34.5294ZM70.5397 42.0089C70.9404 42.8103 71.2075 43.4113 71.4746 43.7452C71.7418 44.1459 72.0089 44.4131 72.3428 44.6802L71.4746 45.7487C71.1407 45.5483 70.8068 45.348 70.4061 45.1477C70.0055 45.0141 69.3376 44.8138 68.4695 44.6134C67.3342 44.4131 66.466 44.2127 65.9318 43.9456C65.3975 43.6785 64.8633 43.4113 64.4626 43.0106C63.7948 42.61 63.4608 41.9421 63.3941 41.1408C63.3273 40.3394 63.5276 39.6716 63.9951 39.0037C64.3958 38.4695 64.9968 38.1356 65.7982 38.002C66.5996 37.8685 67.3342 38.002 68.002 38.4027C68.4027 38.8034 68.8034 39.2709 69.2041 39.7383C69.6048 40.2726 70.0055 41.0072 70.5397 42.0089ZM84.23 41.9421C84.4971 42.6767 84.4971 43.4113 84.23 44.1459C83.896 44.9473 83.3618 45.4148 82.6272 45.6151C82.0929 45.8823 81.4919 46.0826 80.8909 46.1494C80.2898 46.2829 79.4217 46.2829 78.3532 46.1494C77.4182 46.0826 76.6836 46.0826 76.2829 46.1494C75.8822 46.2162 75.4816 46.2829 75.1476 46.4165L74.6134 45.0141C74.9473 44.8805 75.2812 44.6802 75.6819 44.4131C76.0158 44.1459 76.4833 43.6785 77.1511 43.0106C77.8857 42.2093 78.4867 41.675 79.021 41.2743C79.4885 40.9404 80.0227 40.6733 80.557 40.4062C81.2248 40.139 81.9594 40.2058 82.694 40.4729C83.4286 40.8068 83.9628 41.2743 84.23 41.9421ZM71.3411 46.2829L71.8753 47.5518C71.4746 47.7521 71.1407 47.9525 70.8068 48.2196C70.4729 48.4867 70.0055 48.9542 69.4044 49.5552C68.603 50.4234 68.002 51.0244 67.5345 51.3584C67.0003 51.759 66.466 52.0262 65.9318 52.2265C65.1972 52.5604 64.4626 52.5604 63.728 52.2265C62.9934 51.9594 62.5259 51.4251 62.2588 50.7573C61.9249 50.0895 61.9249 49.4217 62.2588 48.6203C62.5259 47.8189 63.0602 47.2847 63.7948 47.0175C64.329 46.8172 64.93 46.6836 65.5311 46.5501C66.1321 46.4833 67.0003 46.4833 68.1356 46.5501C69.0705 46.6169 69.7383 46.6169 70.139 46.5501C70.5397 46.5501 70.9404 46.4165 71.3411 46.2829ZM82.0262 49.6888C82.6272 50.1563 82.9611 50.7573 83.0947 51.5587C83.1614 52.3601 82.9611 53.0947 82.5604 53.6957C82.0929 54.2967 81.4919 54.6307 80.6905 54.7642C79.8891 54.8978 79.1545 54.7642 78.5535 54.23C78.0193 53.8293 77.6186 53.4286 77.2179 52.8943C76.8172 52.4269 76.4165 51.6923 75.949 50.6238C75.5483 49.8224 75.2144 49.2881 75.0141 48.8874C74.747 48.5535 74.4798 48.2864 74.2127 48.0193L75.0141 46.884C75.2812 47.1511 75.6819 47.3515 76.0826 47.485C76.4833 47.6186 77.0843 47.8189 77.9525 47.9525C79.021 48.2196 79.8891 48.4867 80.4902 48.7539C81.0244 49.021 81.5587 49.2881 82.0262 49.6888ZM74.1459 51.3584C74.4798 52.4269 74.6802 53.295 74.747 53.8961C74.8137 54.4971 74.8137 55.0981 74.747 55.6992C74.6134 56.5005 74.2127 57.1016 73.5449 57.569C72.8771 58.0365 72.2092 58.2369 71.5414 58.1033C70.7401 58.0365 70.139 57.7026 69.6715 57.0348C69.1373 56.4338 69.0037 55.6992 69.1373 54.8978C69.2041 54.2967 69.3376 53.6957 69.6048 53.1615C69.8719 52.6272 70.2726 51.8258 70.8736 50.8241C71.3411 50.1563 71.675 49.5552 71.8753 49.1546C72.0089 48.7539 72.1425 48.42 72.276 48.0193L73.6784 48.2864C73.6117 48.6871 73.6117 49.0878 73.6784 49.4885C73.6784 49.8892 73.8788 50.557 74.1459 51.3584Z" fill="#1E1E1E"/>
<path d="M110.331 69.5898C110.331 76.4015 108.394 83.0129 104.521 89.2904C100.648 95.6346 95.9063 100.176 90.2299 102.981L89.0278 101.111C91.6323 99.174 93.235 97.9052 93.9029 97.2374C94.5707 96.6363 95.1717 95.9685 95.7727 95.3007C96.6409 94.2322 97.4423 93.0301 98.1769 91.6945C98.9115 90.3589 99.5793 88.9564 100.114 87.4205C100.514 86.1516 100.915 84.7492 101.249 83.28C101.583 81.8108 101.85 80.2748 102.05 78.6053C102.184 77.2697 102.317 75.8005 102.451 74.3313C102.518 72.8621 102.584 71.2593 102.584 69.5898C102.584 65.9168 102.384 62.5109 101.983 59.4389C101.583 56.367 101.048 53.4954 100.247 50.9577C99.2454 48.0193 97.9765 45.4148 96.4406 43.211C94.8378 41.074 92.3669 38.8034 89.0278 36.466L90.2299 34.5961C95.706 37.0003 100.381 41.675 104.388 48.5535C108.328 55.432 110.331 62.4441 110.331 69.5898Z" fill="#1E1E1E"/>
</svg>
