<svg width="30" height="29" viewBox="0 0 30 29" fill="none" xmlns="http://www.w3.org/2000/svg">
<path d="M4.50771 8.61523C5.10511 9.26756 5.91801 9.68934 6.80142 9.80532C6.80867 9.80476 6.81596 9.80476 6.82322 9.80532L6.95739 9.82456C9.29927 10.1639 10.1858 10.6968 10.4553 11.931C10.7305 13.1889 10.1262 14.3066 8.8497 14.5793C7.61683 14.8417 6.8668 14.2931 5.7922 13.7059L5.67751 13.6448C5.66001 13.635 5.64314 13.624 5.62704 13.612C4.99421 13.2641 4.27345 13.1027 3.55036 13.147C2.82726 13.1912 2.13224 13.4392 1.54783 13.8616C0.963426 14.284 0.514195 14.8629 0.253505 15.5297C-0.00718622 16.1964 -0.0683836 16.923 0.0771785 17.6231C0.222741 18.3231 0.568942 18.9673 1.07467 19.479C1.5804 19.9907 2.22439 20.3484 2.93017 20.5098C3.63594 20.6711 4.37384 20.6293 5.0562 20.3892C5.73857 20.149 6.33673 19.7208 6.77964 19.1553C6.78225 19.1486 6.78531 19.1422 6.78881 19.136C6.81977 19.0964 6.84959 19.0591 6.88056 19.0229C8.34624 17.1982 9.25454 16.7106 10.4714 17.0997C11.7134 17.4934 12.3946 18.5704 11.9944 19.7944C11.6079 20.9789 10.7512 21.3454 9.70067 21.9699L9.59173 22.0355C9.57338 22.0456 9.55616 22.0524 9.53781 22.0615C8.91564 22.4279 8.41318 22.9628 8.09016 23.6027C7.76714 24.2425 7.63714 24.9604 7.71559 25.671C7.79404 26.3816 8.07765 27.055 8.53272 27.6113C8.98779 28.1675 9.5952 28.5832 10.2828 28.8089C10.9703 29.0347 11.7091 29.061 12.4114 28.8847C13.1136 28.7084 13.7498 28.3369 14.2443 27.8145C14.7388 27.292 15.0709 26.6405 15.201 25.9373C15.3312 25.2341 15.2539 24.5089 14.9785 23.8478C14.9738 23.8421 14.9696 23.836 14.9659 23.8297C14.9475 23.7867 14.9326 23.7471 14.9166 23.7041C14.0438 21.5343 14.0679 20.5105 15.0163 19.6632C15.9831 18.8 17.2688 18.7582 18.1438 19.7107C18.9913 20.6327 18.8835 21.5479 18.9065 22.7595C18.9065 22.8013 18.9065 22.8432 18.9065 22.8862C18.9076 22.9054 18.9076 22.9247 18.9065 22.9439C18.9169 23.6586 19.1351 24.3554 19.5352 24.9513C19.9353 25.5473 20.5005 26.0174 21.1635 26.3059C21.8266 26.5943 22.5596 26.6889 23.2756 26.5785C23.9915 26.468 24.6603 26.1571 25.2023 25.6827C25.7444 25.2084 26.137 24.5904 26.3335 23.9024C26.53 23.2144 26.5221 22.4852 26.3108 21.8014C26.0995 21.1177 25.6936 20.5082 25.1414 20.0453C24.5892 19.5825 23.9139 19.2857 23.1957 19.1903C23.1881 19.1909 23.1804 19.1909 23.1728 19.1903L23.0386 19.1711C20.6967 18.8317 19.8102 18.2989 19.5407 17.0647C19.2666 15.8067 19.871 14.689 21.1463 14.4164C22.3792 14.1539 23.1292 14.7026 24.2049 15.2897L24.3196 15.3508C24.3369 15.3604 24.3534 15.3714 24.3689 15.3836C25.0014 15.7323 25.7221 15.8946 26.4453 15.8512C27.1685 15.8077 27.8639 15.5605 28.4488 15.1387C29.0338 14.7169 29.4837 14.1384 29.7451 13.4718C30.0065 12.8052 30.0684 12.0786 29.9236 11.3784C29.7787 10.6781 29.4331 10.0336 28.9277 9.52135C28.4224 9.00913 27.7787 8.65075 27.073 8.48879C26.3673 8.32684 25.6293 8.3681 24.9467 8.60769C24.264 8.84728 23.6655 9.27513 23.2221 9.84039C23.2195 9.847 23.2164 9.85343 23.2129 9.85962C23.1819 9.89922 23.1521 9.93655 23.1212 9.97275C21.6543 11.7975 20.746 12.2851 19.5292 11.8959C18.2872 11.5022 17.6071 10.4253 18.0073 9.20123C18.3938 8.01679 19.2505 7.65026 20.3011 7.02467L20.4157 6.96018C20.4329 6.95 20.4513 6.94322 20.4696 6.93417C21.0905 6.56663 21.5914 6.03114 21.913 5.39122C22.2346 4.75129 22.3633 4.03381 22.2839 3.32388C22.2045 2.61396 21.9204 1.9414 21.4651 1.386C21.0099 0.830598 20.4027 0.415676 19.7155 0.190458C19.0284 -0.0347591 18.2902 -0.060817 17.5885 0.115376C16.8868 0.29157 16.2511 0.662619 15.7568 1.1845C15.2624 1.70638 14.9302 2.35718 14.7996 3.05969C14.669 3.7622 14.7454 4.48693 15.0198 5.14789C15.0198 5.15468 15.0301 5.16034 15.0324 5.16599L15.0817 5.29156C15.9533 7.46134 15.9304 8.48513 14.9819 9.33245C14.014 10.1956 12.7295 10.2375 11.8533 9.28494C11.0069 8.36296 11.1136 7.44776 11.0918 6.23052C11.0918 6.18866 11.0918 6.14793 11.0918 6.10495C11.0907 6.08573 11.0907 6.06647 11.0918 6.04725C11.0842 5.44253 10.9277 4.8487 10.6358 4.31684C10.344 3.78499 9.92555 3.33103 9.41646 2.99402C8.90738 2.65701 8.32292 2.44705 7.71336 2.38219C7.1038 2.31734 6.48739 2.39953 5.91716 2.6217C5.34693 2.84386 4.83996 3.19936 4.43985 3.65759C4.03975 4.11583 3.75849 4.66309 3.62028 5.25228C3.48207 5.84148 3.49105 6.45498 3.64644 7.04C3.80182 7.62502 4.09896 8.16405 4.5123 8.6107L4.50771 8.61523Z" fill="#CDEDD3"/>
</svg>
