<svg width="11" height="23" viewBox="0 0 11 23" fill="none" xmlns="http://www.w3.org/2000/svg">
<path d="M1.772 7.122C2.256 7.122 2.63 7.276 2.894 7.584C3.158 7.892 3.312 8.244 3.312 8.684C3.312 9.124 3.158 9.476 2.894 9.762C2.63 10.07 2.256 10.202 1.772 10.202C1.288 10.202 0.892 10.07 0.628 9.762C0.342 9.476 0.21 9.124 0.21 8.684C0.21 8.244 0.342 7.892 0.628 7.584C0.892 7.276 1.288 7.122 1.772 7.122ZM1.772 14.162C2.256 14.162 2.63 14.316 2.894 14.624C3.158 14.932 3.312 15.284 3.312 15.724C3.312 16.164 3.158 16.516 2.894 16.802C2.63 17.11 2.256 17.242 1.772 17.242C1.288 17.242 0.892 17.11 0.628 16.802C0.342 16.516 0.21 16.164 0.21 15.724C0.21 15.284 0.342 14.932 0.628 14.624C0.892 14.316 1.288 14.162 1.772 14.162ZM10.3604 11.72C10.3604 13.964 9.72242 16.142 8.44642 18.21C7.17042 20.3 5.60842 21.796 3.73842 22.72L3.34242 22.104C4.20042 21.466 4.72842 21.048 4.94842 20.828C5.16842 20.63 5.36642 20.41 5.56442 20.19C5.85042 19.838 6.11442 19.442 6.35642 19.002C6.59842 18.562 6.81842 18.1 6.99442 17.594C7.12642 17.176 7.25842 16.714 7.36842 16.23C7.47842 15.746 7.56642 15.24 7.63242 14.69C7.67642 14.25 7.72042 13.766 7.76442 13.282C7.78642 12.798 7.80842 12.27 7.80842 11.72C7.80842 10.51 7.74242 9.388 7.61042 8.376C7.47842 7.364 7.30242 6.418 7.03842 5.582C6.70842 4.614 6.29042 3.756 5.78442 3.03C5.25642 2.326 4.44242 1.578 3.34242 0.807999L3.73842 0.191999C5.54242 0.983999 7.08242 2.524 8.40242 4.79C9.70042 7.056 10.3604 9.366 10.3604 11.72Z" fill="#CDEDD3"/>
</svg>
