<svg width="22" height="23" viewBox="0 0 22 23" fill="none" xmlns="http://www.w3.org/2000/svg">
<path d="M1.772 7.122C2.256 7.122 2.63 7.276 2.894 7.584C3.158 7.892 3.312 8.244 3.312 8.684C3.312 9.124 3.158 9.476 2.894 9.762C2.63 10.07 2.256 10.202 1.772 10.202C1.288 10.202 0.892 10.07 0.628 9.762C0.342 9.476 0.21 9.124 0.21 8.684C0.21 8.244 0.342 7.892 0.628 7.584C0.892 7.276 1.288 7.122 1.772 7.122ZM1.772 14.162C2.256 14.162 2.63 14.316 2.894 14.624C3.158 14.932 3.312 15.284 3.312 15.724C3.312 16.164 3.158 16.516 2.894 16.802C2.63 17.11 2.256 17.242 1.772 17.242C1.288 17.242 0.892 17.11 0.628 16.802C0.342 16.516 0.21 16.164 0.21 15.724C0.21 15.284 0.342 14.932 0.628 14.624C0.892 14.316 1.288 14.162 1.772 14.162ZM9.85425 0.169999C10.0963 0.214 10.2943 0.345999 10.4703 0.565999C10.6463 0.785999 10.7123 1.028 10.6683 1.248C10.6242 1.446 10.5803 1.644 10.4923 1.82C10.4043 2.018 10.2723 2.26 10.0743 2.546C9.89825 2.81 9.78825 3.008 9.72225 3.14C9.65625 3.272 9.61225 3.382 9.61225 3.514L9.15025 3.426C9.15025 3.294 9.15025 3.162 9.15025 3.03C9.12825 2.898 9.06225 2.678 8.97425 2.37C8.84225 2.04 8.77625 1.776 8.75425 1.578C8.73225 1.38 8.73225 1.182 8.77625 0.983999C8.82025 0.742 8.95225 0.543999 9.17225 0.367999C9.39225 0.214 9.61225 0.147999 9.85425 0.169999ZM8.40225 2.634C8.53425 2.898 8.62225 3.096 8.71025 3.206C8.79825 3.338 8.88625 3.426 8.99625 3.514L8.71025 3.866C8.60025 3.8 8.49025 3.734 8.35825 3.668C8.22625 3.624 8.00625 3.558 7.72025 3.492C7.34625 3.426 7.06025 3.36 6.88425 3.272C6.70825 3.184 6.53225 3.096 6.40025 2.964C6.18025 2.832 6.07025 2.612 6.04825 2.348C6.02625 2.084 6.09225 1.864 6.24625 1.644C6.37825 1.468 6.57625 1.358 6.84025 1.314C7.10425 1.27 7.34625 1.314 7.56625 1.446C7.69825 1.578 7.83025 1.732 7.96225 1.886C8.09425 2.062 8.22625 2.304 8.40225 2.634ZM12.9123 2.612C13.0003 2.854 13.0003 3.096 12.9123 3.338C12.8023 3.602 12.6263 3.756 12.3843 3.822C12.2083 3.91 12.0103 3.976 11.8123 3.998C11.6143 4.042 11.3283 4.042 10.9763 3.998C10.6683 3.976 10.4263 3.976 10.2943 3.998C10.1623 4.02 10.0303 4.042 9.92025 4.086L9.74425 3.624C9.85425 3.58 9.96425 3.514 10.0963 3.426C10.2063 3.338 10.3603 3.184 10.5803 2.964C10.8223 2.7 11.0203 2.524 11.1963 2.392C11.3503 2.282 11.5263 2.194 11.7023 2.106C11.9223 2.018 12.1643 2.04 12.4063 2.128C12.6483 2.238 12.8243 2.392 12.9123 2.612ZM8.66625 4.042L8.84225 4.46C8.71025 4.526 8.60025 4.592 8.49025 4.68C8.38025 4.768 8.22625 4.922 8.02825 5.12C7.76425 5.406 7.56625 5.604 7.41225 5.714C7.23625 5.846 7.06025 5.934 6.88425 6C6.64225 6.11 6.40025 6.11 6.15825 6C5.91625 5.912 5.76225 5.736 5.67425 5.516C5.56425 5.296 5.56425 5.076 5.67425 4.812C5.76225 4.548 5.93825 4.372 6.18025 4.284C6.35625 4.218 6.55425 4.174 6.75225 4.13C6.95025 4.108 7.23625 4.108 7.61025 4.13C7.91825 4.152 8.13825 4.152 8.27025 4.13C8.40225 4.13 8.53425 4.086 8.66625 4.042ZM12.1863 5.164C12.3843 5.318 12.4943 5.516 12.5383 5.78C12.5603 6.044 12.4943 6.286 12.3623 6.484C12.2083 6.682 12.0103 6.792 11.7463 6.836C11.4823 6.88 11.2403 6.836 11.0423 6.66C10.8663 6.528 10.7343 6.396 10.6023 6.22C10.4703 6.066 10.3383 5.824 10.1843 5.472C10.0523 5.208 9.94225 5.032 9.87625 4.9C9.78825 4.79 9.70025 4.702 9.61225 4.614L9.87625 4.24C9.96425 4.328 10.0963 4.394 10.2283 4.438C10.3603 4.482 10.5583 4.548 10.8443 4.592C11.1963 4.68 11.4823 4.768 11.6803 4.856C11.8563 4.944 12.0323 5.032 12.1863 5.164ZM9.59025 5.714C9.70025 6.066 9.76625 6.352 9.78825 6.55C9.81025 6.748 9.81025 6.946 9.78825 7.144C9.74425 7.408 9.61225 7.606 9.39225 7.76C9.17225 7.914 8.95225 7.98 8.73225 7.936C8.46825 7.914 8.27025 7.804 8.11625 7.584C7.94025 7.386 7.89625 7.144 7.94025 6.88C7.96225 6.682 8.00625 6.484 8.09425 6.308C8.18225 6.132 8.31425 5.868 8.51225 5.538C8.66625 5.318 8.77625 5.12 8.84225 4.988C8.88625 4.856 8.93025 4.746 8.97425 4.614L9.43625 4.702C9.41425 4.834 9.41425 4.966 9.43625 5.098C9.43625 5.23 9.50225 5.45 9.59025 5.714ZM21.5108 11.72C21.5108 13.964 20.8728 16.142 19.5968 18.21C18.3208 20.3 16.7588 21.796 14.8888 22.72L14.4928 22.104C15.3508 21.466 15.8788 21.048 16.0988 20.828C16.3188 20.63 16.5168 20.41 16.7148 20.19C17.0008 19.838 17.2648 19.442 17.5068 19.002C17.7488 18.562 17.9688 18.1 18.1448 17.594C18.2768 17.176 18.4088 16.714 18.5188 16.23C18.6288 15.746 18.7168 15.24 18.7828 14.69C18.8268 14.25 18.8708 13.766 18.9148 13.282C18.9368 12.798 18.9588 12.27 18.9588 11.72C18.9588 10.51 18.8928 9.388 18.7608 8.376C18.6288 7.364 18.4528 6.418 18.1888 5.582C17.8588 4.614 17.4408 3.756 16.9348 3.03C16.4068 2.326 15.5928 1.578 14.4928 0.807999L14.8888 0.191999C16.6928 0.983999 18.2328 2.524 19.5528 4.79C20.8508 7.056 21.5108 9.366 21.5108 11.72Z" fill="#CDEDD3"/>
</svg>
