<svg width="22" height="23" viewBox="0 0 22 23" fill="none" xmlns="http://www.w3.org/2000/svg">
<path d="M1.77148 7.11719C2.25846 7.11719 2.63802 7.26758 2.91016 7.56836C3.17513 7.86198 3.30762 8.23438 3.30762 8.68555C3.30762 9.11523 3.17513 9.47331 2.91016 9.75977C2.63802 10.0534 2.25846 10.2002 1.77148 10.2002C1.29167 10.2002 0.912109 10.0534 0.632812 9.75977C0.353516 9.47331 0.213867 9.11523 0.213867 8.68555C0.213867 8.24154 0.353516 7.86914 0.632812 7.56836C0.912109 7.26758 1.29167 7.11719 1.77148 7.11719ZM1.77148 14.1641C2.25846 14.1641 2.63802 14.3145 2.91016 14.6152C3.17513 14.9089 3.30762 15.2777 3.30762 15.7217C3.30762 16.1585 3.17513 16.5202 2.91016 16.8066C2.63802 17.1003 2.25846 17.2471 1.77148 17.2471C1.29167 17.2471 0.912109 17.1003 0.632812 16.8066C0.353516 16.513 0.213867 16.1514 0.213867 15.7217C0.213867 15.2848 0.353516 14.916 0.632812 14.6152C0.912109 14.3145 1.29167 14.1641 1.77148 14.1641ZM9.82812 0.166992C10.0716 0.209961 10.2829 0.342448 10.4619 0.564453C10.6266 0.772135 10.6875 1.0013 10.6445 1.25195C10.6087 1.47396 10.555 1.66374 10.4834 1.82129C10.3975 2.02181 10.2542 2.26172 10.0537 2.54102C9.86035 2.86328 9.74577 3.06022 9.70996 3.13184C9.63835 3.2679 9.59896 3.39681 9.5918 3.51855L9.12988 3.42188C9.14421 3.29297 9.14421 3.1569 9.12988 3.01367C9.11556 2.86328 9.05827 2.64844 8.95801 2.36914C8.83626 2.02539 8.76465 1.75684 8.74316 1.56348C8.72168 1.35579 8.72526 1.16243 8.75391 0.983398C8.79688 0.739909 8.92936 0.535807 9.15137 0.371094C9.37337 0.20638 9.59896 0.138346 9.82812 0.166992ZM8.37793 2.6377C8.49967 2.88835 8.6071 3.07812 8.7002 3.20703C8.80046 3.35026 8.89355 3.4541 8.97949 3.51855L8.68945 3.8623C8.58203 3.78353 8.46387 3.71908 8.33496 3.66895C8.17741 3.60449 7.96615 3.5472 7.70117 3.49707C7.31445 3.41829 7.03874 3.33952 6.87402 3.26074C6.68783 3.1748 6.52311 3.07454 6.37988 2.95996C6.1722 2.80957 6.05762 2.60547 6.03613 2.34766C6.01465 2.07552 6.0791 1.83919 6.22949 1.63867C6.3584 1.45247 6.55892 1.34147 6.83105 1.30566C7.10319 1.26986 7.33952 1.31641 7.54004 1.44531C7.66178 1.54557 7.79785 1.69238 7.94824 1.88574C8.06283 2.02181 8.20605 2.27246 8.37793 2.6377ZM12.8896 2.61621C12.9971 2.85254 12.9971 3.09245 12.8896 3.33594C12.7822 3.58659 12.6068 3.74772 12.3633 3.81934C12.1842 3.91243 11.998 3.97331 11.8047 4.00195C11.6113 4.03776 11.3285 4.03776 10.9561 4.00195C10.6553 3.97331 10.4297 3.96973 10.2793 3.99121C10.1504 4.0127 10.0251 4.04492 9.90332 4.08789L9.7207 3.62598C9.82096 3.59017 9.93913 3.52214 10.0752 3.42188C10.1683 3.35026 10.3294 3.19629 10.5586 2.95996C10.7878 2.71647 10.9919 2.52669 11.1709 2.39062C11.2998 2.29753 11.4681 2.20443 11.6758 2.11133C11.9193 2.02539 12.1592 2.03255 12.3955 2.13281C12.639 2.24023 12.8037 2.40137 12.8896 2.61621ZM8.64648 4.04492L8.81836 4.46387C8.70378 4.514 8.58919 4.58561 8.47461 4.67871C8.36719 4.76465 8.20964 4.91146 8.00195 5.11914C7.76562 5.39128 7.56152 5.58822 7.38965 5.70996C7.22493 5.83171 7.04948 5.92839 6.86328 6C6.62695 6.10742 6.38704 6.10742 6.14355 6C5.90007 5.89258 5.73535 5.73145 5.64941 5.5166C5.54199 5.30176 5.54199 5.06185 5.64941 4.79688C5.75684 4.53906 5.92513 4.36719 6.1543 4.28125C6.31185 4.22396 6.50879 4.17383 6.74512 4.13086C6.93848 4.09505 7.22135 4.09505 7.59375 4.13086C7.90169 4.13802 8.1237 4.13802 8.25977 4.13086C8.38867 4.1237 8.51758 4.09505 8.64648 4.04492ZM12.1699 5.16211C12.3633 5.30534 12.4779 5.51302 12.5137 5.78516C12.5423 6.05013 12.485 6.28288 12.3418 6.4834C12.1914 6.67676 11.9873 6.79492 11.7295 6.83789C11.4645 6.88086 11.2282 6.81999 11.0205 6.65527C10.8773 6.54069 10.734 6.39388 10.5908 6.21484C10.4691 6.06445 10.3258 5.81738 10.1611 5.47363C10.0537 5.25879 9.94987 5.06901 9.84961 4.9043C9.76367 4.77539 9.67773 4.67871 9.5918 4.61426L9.84961 4.23828C9.95703 4.3099 10.0752 4.37435 10.2041 4.43164C10.3258 4.48177 10.5335 4.53548 10.8271 4.59277C11.2139 4.68587 11.4896 4.76823 11.6543 4.83984C11.8477 4.92578 12.0195 5.0332 12.1699 5.16211ZM9.57031 5.70996C9.6849 6.04655 9.75293 6.32227 9.77441 6.53711C9.7959 6.74479 9.79232 6.94531 9.76367 7.13867C9.7207 7.39648 9.5918 7.60059 9.37695 7.75098C9.16211 7.90137 8.9401 7.96224 8.71094 7.93359C8.46745 7.90495 8.26335 7.78678 8.09863 7.5791C7.93392 7.37142 7.87305 7.13867 7.91602 6.88086C7.95182 6.66602 8.00911 6.47266 8.08789 6.30078C8.20964 6.04297 8.3457 5.78874 8.49609 5.53809C8.65365 5.30176 8.76107 5.11914 8.81836 4.99023C8.88997 4.81836 8.93652 4.69303 8.95801 4.61426L9.41992 4.7002C9.4056 4.82194 9.4056 4.95085 9.41992 5.08691C9.42708 5.20866 9.47721 5.41634 9.57031 5.70996ZM21.4941 11.7148C21.4941 13.9492 20.8568 16.1156 19.582 18.2139C18.3216 20.2907 16.7497 21.791 14.8662 22.7148L14.4688 22.1025C15.3066 21.4795 15.8473 21.0534 16.0908 20.8242C16.234 20.6882 16.4346 20.4769 16.6924 20.1904C16.9645 19.8467 17.2331 19.4456 17.498 18.9873C17.7272 18.5863 17.9349 18.1208 18.1211 17.5908C18.2715 17.154 18.4004 16.6992 18.5078 16.2266C18.6367 15.6536 18.7227 15.1416 18.7656 14.6904C18.8229 14.2393 18.8659 13.7666 18.8945 13.2725C18.9232 12.8356 18.9375 12.3164 18.9375 11.7148C18.9375 10.4473 18.8766 9.33008 18.7549 8.36328C18.626 7.33203 18.429 6.40462 18.1641 5.58105C17.8346 4.58561 17.4193 3.73698 16.918 3.03516C16.4023 2.31901 15.5859 1.5778 14.4688 0.811523L14.8662 0.188477C16.6637 0.983398 18.2178 2.51237 19.5283 4.77539C20.8389 7.03841 21.4941 9.35156 21.4941 11.7148Z" fill="white"/>
</svg>
