<svg width="175" height="50" viewBox="0 0 175 50" fill="none" xmlns="http://www.w3.org/2000/svg">
<g clip-path="url(#clip0_1765_2502)">
<path d="M166.846 43.5377C170.279 43.5377 172.711 42.9245 174.523 41.6038V35.6132C172.663 36.8868 170.422 37.6887 167.275 37.6887C161.982 37.6887 159.789 33.6321 159.789 27.217C159.789 20.4717 162.459 17.0283 167.323 17.0283C170.184 17.0283 172.997 18.0188 174.475 18.9622V12.7358C172.902 11.8868 170.184 11.2736 166.465 11.2736C156.975 11.2736 152.064 18.0188 152.064 27.4528C152.112 37.783 156.928 43.5377 166.846 43.5377ZM120.45 40.8019V34.8113C118.161 36.3679 114.251 37.7358 110.674 37.7358C105.238 37.7358 103.188 35.1887 102.854 30H120.783V26.1321C120.783 15.3302 115.967 11.2736 108.576 11.2736C99.5163 11.2736 95.2247 18.1132 95.2247 27.5C95.2247 38.3019 100.613 43.5377 110.054 43.5377C114.775 43.5377 118.256 42.2641 120.45 40.8019ZM52.4046 11.8396V24.1037H42.4863V11.8396H35.0476V42.9245H42.4863V29.9528H52.4046V42.9245H59.8432V11.8396H52.4046ZM93.365 37.0754H90.0749V11.8396H68.4264V14.4811C68.4264 22.0754 67.9495 31.8868 65.3269 37.0754H62.9427V50H69.8092V42.9245H86.4509V50H93.3174V37.0754H93.365ZM144.148 42.9245H152.588L140.668 26.1792L151.158 11.8396H143.672L133.181 26.1792V11.8396H125.742V42.9245H133.181V27.6415L144.148 42.9245ZM108.385 17.0283C112.057 17.0283 113.202 20.0471 113.202 23.9622V24.5754H102.854C103.045 19.6226 104.857 17.0283 108.385 17.0283ZM82.6362 37.0754H72.1457C74.1961 32.4056 74.7683 23.9151 74.7683 18.5377V17.5943H82.6362V37.0754Z" fill="#4F4F4F"/>
<path d="M28.8488 42.9245H21.267V5.80189H17.8815C11.6826 5.80189 8.44006 8.86792 8.44006 13.4434C8.44006 18.6321 10.6812 21.0377 15.3065 24.1038L19.1213 26.6509L8.15395 42.9245H0L9.87057 28.3962C4.19619 24.3868 1.00136 20.4717 1.00136 13.8679C1.00136 5.61321 6.8188 0 17.8338 0H28.8011V42.9245H28.8488Z" fill="#4F4F4F"/>
</g>
<defs>
<clipPath id="clip0_1765_2502">
<rect width="175" height="50" fill="white"/>
</clipPath>
</defs>
</svg>
