<svg width="203" height="31" viewBox="0 0 203 31" fill="none" xmlns="http://www.w3.org/2000/svg">
<g clip-path="url(#clip0_1765_2505)">
<path d="M27.8506 5.96948C28.5892 6.91307 29.2144 7.93819 29.7137 9.02427L15.5514 19.3409L9.63257 15.6744V11.2635L15.5514 14.9299L27.8506 5.96948Z" fill="#4F4F4F"/>
<path d="M3.59191 15.3635C3.59191 15.1655 3.59679 14.9689 3.60656 14.7734L0.0195963 14.5997C0.00738741 14.8531 6.53698e-05 15.1089 6.53698e-05 15.367C-0.00146078 17.3841 0.400024 19.3815 1.1815 21.2448C1.96297 23.1082 3.10904 24.8007 4.55397 26.2253L7.09829 23.7122C5.98604 22.6176 5.10368 21.3164 4.50193 19.8836C3.90019 18.4509 3.59093 16.9147 3.59191 15.3635Z" fill="#4F4F4F"/>
<path d="M15.548 3.54863C15.7481 3.54863 15.9471 3.55587 16.1449 3.56552L16.3244 0.0196947C16.0672 0.00762994 15.8084 0.00159831 15.548 0.00159831C13.5058 -0.000862603 11.4834 0.395311 9.59675 1.16737C7.71006 1.93943 5.99629 3.07217 4.55383 4.50054L7.09816 7.01483C8.20597 5.91535 9.5228 5.04309 10.9729 4.44824C12.423 3.85339 13.9778 3.54765 15.548 3.54863Z" fill="#4F4F4F"/>
<path d="M15.548 27.1786C15.3478 27.1786 15.1488 27.1786 14.9498 27.1629L14.7703 30.7075C15.0283 30.7204 15.2876 30.7269 15.548 30.7269C17.5893 30.7289 19.6107 30.3325 21.4964 29.5602C23.382 28.7879 25.0947 27.655 26.536 26.2267L23.9966 23.7136C22.8886 24.8125 21.5719 25.6843 20.1221 26.2789C18.6722 26.8736 17.1178 27.1793 15.548 27.1786Z" fill="#4F4F4F"/>
<path d="M22.2873 5.61013L25.3102 3.40831C22.5473 1.1974 19.0984 -0.00613725 15.5431 2.35352e-05V3.54826C17.9506 3.54531 20.3021 4.26427 22.2873 5.61013Z" fill="#4F4F4F"/>
<path d="M31.0948 15.3636C31.0967 14.4406 31.015 13.5191 30.8506 12.6105L27.5042 15.0475C27.5042 15.1526 27.5042 15.2575 27.5042 15.3636C27.505 17.0144 27.1548 18.647 26.4764 20.1555C25.7979 21.664 24.8061 23.0147 23.5656 24.1202L25.9793 26.7564C27.5921 25.3176 28.881 23.5599 29.7622 21.5973C30.6435 19.6346 31.0975 17.5108 31.0948 15.3636Z" fill="#4F4F4F"/>
<path d="M15.5481 27.1787C13.8775 27.1793 12.2253 26.8331 10.6986 26.1627C9.17198 25.4922 7.80482 24.5123 6.68569 23.2866L4.01929 25.6706C5.47514 27.2647 7.25379 28.5385 9.23989 29.4096C11.226 30.2806 13.3752 30.7294 15.5481 30.7269V27.1787Z" fill="#4F4F4F"/>
<path d="M7.5305 6.60673L5.11802 3.97058C3.50471 5.40915 2.2154 7.16676 1.33371 9.12941C0.452027 11.0921 -0.00234274 13.2159 7.05985e-05 15.3633H3.59192C3.59118 13.7126 3.9414 12.08 4.61988 10.5715C5.29837 9.0631 6.28999 7.71231 7.5305 6.60673Z" fill="#4F4F4F"/>
<mask id="mask0_1765_2505" style="mask-type:luminance" maskUnits="userSpaceOnUse" x="39" y="5" width="163" height="21">
<path d="M201.718 5.34485H39.4667V25.6552H201.718V5.34485Z" fill="white"/>
</mask>
<g mask="url(#mask0_1765_2505)">
<path d="M89.7222 8.78589L94.1707 5.58386H79.2824V24.8253H94.1707V21.6233H83.5307V16.6945H92.6071V13.4925H83.5307V8.78589H89.7222Z" fill="#4F4F4F"/>
<path d="M69.2647 13.0795H64.0958V8.78451H72.3452L76.791 5.57275H59.85V24.8142H68.7179C73.6897 24.8142 76.543 22.6126 76.543 18.7731C76.543 15.1 73.9586 13.0795 69.2647 13.0795ZM68.5267 21.6111H64.0958V16.2796H68.5267C71.2158 16.2796 72.4766 17.173 72.4766 18.9454C72.4766 20.7177 71.135 21.6111 68.5267 21.6111Z" fill="#4F4F4F"/>
<path d="M105.115 5.58142H97.0107V24.8228H101.258V19.372H105.115C110.285 19.372 113.484 16.7138 113.484 12.4664C113.484 8.21919 110.285 5.58142 105.115 5.58142ZM105.025 16.1676H101.258V8.78589H105.025C107.745 8.78589 109.246 10.0975 109.246 12.4782C109.246 14.8589 107.745 16.1676 105.025 16.1676Z" fill="#4F4F4F"/>
<path d="M53.4756 20.2819C52.3783 20.8625 51.1489 21.1631 49.9011 21.1559C46.1666 21.1559 43.4574 18.5511 43.4574 14.9642C43.4574 11.3772 46.1666 8.76672 49.9011 8.76672C51.2479 8.74437 52.5667 9.14336 53.6649 9.90546L56.6362 7.7675L56.4353 7.62801C54.702 6.13914 52.3861 5.35059 49.7352 5.35059C46.8599 5.35059 44.2527 6.29571 42.3912 8.01517C41.4499 8.90049 40.7056 9.96587 40.2043 11.1448C39.7032 12.3237 39.4559 13.5909 39.4781 14.8673C39.4582 16.1568 39.7043 17.4369 40.2018 18.6313C40.6993 19.8257 41.438 20.9099 42.3737 21.8192C44.2439 23.607 46.8453 24.5919 49.7002 24.5919C52.6832 24.5919 55.2905 23.5756 57.0558 21.7253L54.3961 19.7895L53.4756 20.2819Z" fill="#4F4F4F"/>
<path d="M130.327 13.0795H125.161V8.78451H136.264V5.57275H120.912V24.8142H129.769C134.74 24.8142 137.593 22.6126 137.593 18.7731C137.605 15.1 135.021 13.0795 130.327 13.0795ZM129.589 21.6111H125.161V16.2796H129.589C132.278 16.2796 133.538 17.173 133.538 18.9454C133.538 20.7177 132.209 21.6111 129.589 21.6111Z" fill="#4F4F4F"/>
<path d="M185.887 24.7871H181.581V5.54565H185.887V13.6272H188.231L194.561 5.54565H199.441L191.933 14.699L200.651 24.7871H194.937L188.53 17.2196H185.887V24.7871Z" fill="#4F4F4F"/>
<path d="M153.239 21.1302H144.129L142.585 24.8666H138.002L146.546 5.62524H151.128L159.534 24.8666H154.783L153.239 21.1302ZM151.812 17.6438L148.711 10.1708L145.592 17.6438H151.812Z" fill="#4F4F4F"/>
<path d="M165.332 5.62524V13.6601H174.243V5.62524H178.684V24.8666H174.243V17.2849H165.332V24.8666H160.892V5.62524H165.332Z" fill="#4F4F4F"/>
</g>
</g>
<defs>
<clipPath id="clip0_1765_2505">
<rect width="202.316" height="31" fill="white"/>
</clipPath>
</defs>
</svg>
