<svg width="21" height="19" viewBox="0 0 21 19" fill="none" xmlns="http://www.w3.org/2000/svg">
<path d="M0 6.01772C0 2.81737 2.24293 0.404663 5.68451 0.404663C7.92562 0.404663 9.58193 1.32743 10.5009 3.14807C11.409 1.32743 13.0744 0.404663 15.3173 0.404663C18.7571 0.404663 21 2.82448 21 6.01772C21 8.58867 19.7523 10.5089 17.2787 11.7321C16.3388 12.1828 15.4289 12.6911 14.5545 13.2541C13.2542 14.1271 12.1082 15.6241 11.8303 18.1186H9.17512C9.04799 16.874 8.71746 15.8481 8.1817 15.0747C7.73146 14.3541 7.13196 13.7339 6.42186 13.2541C5.55977 12.6845 4.65728 12.1759 3.72126 11.7321C1.2495 10.5071 0 8.58867 0 6.01772Z" fill="#CDEDD3"/>
</svg>
