<svg width="310" height="104" viewBox="0 0 310 104" fill="none" xmlns="http://www.w3.org/2000/svg">
<g clip-path="url(#clip0_11_1309)">
<path d="M76.4151 48.83C76.4151 48.83 77.595 35.45 77.715 34.14C77.75 33.3784 77.6312 32.6175 77.3659 31.9027C77.1005 31.188 76.694 30.5339 76.1705 29.9796C75.6469 29.4253 75.0172 28.9821 74.3187 28.6764C73.6203 28.3706 72.8674 28.2086 72.105 28.2H38.335C36.7782 28.0921 35.2414 28.6012 34.0569 29.6173C32.8724 30.6334 32.1353 32.0749 32.005 33.63C31.855 35.2 29.055 67.55 28.885 69.41C28.7853 70.2021 28.8533 71.0064 29.0848 71.7704C29.3162 72.5345 29.7059 73.2414 30.2284 73.845C30.7509 74.4486 31.3946 74.9355 32.1176 75.2741C32.8406 75.6126 33.6268 75.7952 34.425 75.81H67.995C72.455 75.81 74.185 73.45 74.565 69.81C74.795 67.63 75.895 54.46 75.895 54.46H55.595L54.725 64.64H49.585L51.795 39.37H56.935L56.115 48.83H76.4151Z" fill="#4F4F4F"/>
<path d="M107.735 32.2701C107.015 34.3501 101.105 52.8401 101.105 52.8401L103.735 28.1801H83.4451L79.1951 75.8101H94.4851C98.3251 75.8101 99.6351 73.6301 100.275 71.8801C101.045 69.8001 106.675 54.2401 106.675 54.2401L104.605 75.8101H124.905L129.085 28.2001H113.155C111.931 28.1912 110.737 28.5846 109.758 29.3199C108.779 30.0552 108.068 31.0917 107.735 32.2701Z" fill="#4F4F4F"/>
<path d="M210.555 28.2001L208.655 49.9101H203.505L205.405 28.2001H185.115C185.115 28.2001 183.165 51.2001 182.955 53.4101C182.715 56.0601 184.215 59.8101 188.705 59.8101H207.795L207.375 64.6401H181.975L180.975 75.8101H221.365C224.105 75.8101 226.745 74.0201 227.105 70.2001C227.335 67.7501 230.825 28.2001 230.825 28.2001H210.555Z" fill="#4F4F4F"/>
<path d="M263.515 28.21H235.955L231.795 75.81H252.085L253.375 61.08H273.095C276.585 61.08 278.895 59.3 279.275 55.22C279.415 53.63 281.025 35.59 281.125 34C281.375 30.48 278.575 28.21 275.125 28.21H263.515ZM254.245 51.21L255.245 39.4H260.335L259.335 51.21H254.245Z" fill="#4F4F4F"/>
<path d="M153.155 44.1901L153.585 39.3701H179.005L180.005 28.2001H134.255L130.095 75.8001H170.595C173.175 75.8001 175.965 74.2801 176.325 70.3001C176.595 67.3001 177.845 53.1601 178.075 50.5901C178.375 47.1601 176.195 44.1901 171.925 44.1901H153.155ZM156.435 65.9001H151.255L152.255 54.1001H157.425L156.435 65.9001Z" fill="#4F4F4F"/>
</g>
<defs>
<clipPath id="clip0_11_1309">
<rect width="308.41" height="103.46" fill="white" transform="translate(0.795044 0.27002)"/>
</clipPath>
</defs>
</svg>
