<svg width="16" height="18" viewBox="0 0 16 18" fill="none" xmlns="http://www.w3.org/2000/svg">
<path d="M2.40411 6.59479C2.72272 6.9427 3.15627 7.16765 3.62742 7.22951C3.63129 7.22921 3.63518 7.22921 3.63905 7.22951L3.71061 7.23976C4.95961 7.42077 5.43242 7.70494 5.57616 8.36319C5.72296 9.03411 5.40061 9.63021 4.71984 9.77561C4.06231 9.91559 3.66229 9.62297 3.08917 9.30983L3.02801 9.27725C3.01867 9.27199 3.00968 9.26614 3.00109 9.25976C2.66358 9.07421 2.27917 8.98812 1.89352 9.01171C1.50787 9.03531 1.13719 9.16759 0.825511 9.39285C0.513827 9.61811 0.274238 9.92688 0.135202 10.2825C-0.00383266 10.6381 -0.0364713 11.0256 0.0411619 11.399C0.118795 11.7723 0.303436 12.1159 0.573158 12.3888C0.842879 12.6617 1.18634 12.8525 1.56276 12.9386C1.93917 13.0246 2.33272 13.0023 2.69664 12.8742C3.06057 12.7462 3.37959 12.5178 3.61581 12.2161C3.6172 12.2126 3.61883 12.2092 3.6207 12.2059C3.63721 12.1848 3.65312 12.1649 3.66963 12.1455C4.45133 11.1724 4.93576 10.9123 5.58472 11.1199C6.24715 11.3298 6.61047 11.9042 6.397 12.557C6.19088 13.1887 5.73397 13.3842 5.17369 13.7173L5.11559 13.7522C5.1058 13.7577 5.09662 13.7613 5.08683 13.7661C4.75501 13.9616 4.48703 14.2468 4.31475 14.5881C4.14248 14.9293 4.07314 15.3122 4.11498 15.6912C4.15682 16.0702 4.30808 16.4293 4.55078 16.726C4.79349 17.0227 5.11744 17.2444 5.48413 17.3648C5.85083 17.4852 6.24486 17.4992 6.61939 17.4052C6.99393 17.3111 7.33323 17.113 7.59697 16.8344C7.86071 16.5557 8.03781 16.2083 8.10722 15.8332C8.17663 15.4582 8.13544 15.0714 7.98853 14.7188C7.98602 14.7158 7.98377 14.7125 7.98181 14.7092C7.97202 14.6862 7.96407 14.6651 7.9555 14.6422C7.49003 13.485 7.50288 12.9389 8.00872 12.487C8.52434 12.0267 9.21001 12.0044 9.6767 12.5124C10.1287 13.0041 10.0712 13.4922 10.0835 14.1384C10.0835 14.1607 10.0835 14.183 10.0835 14.206C10.0841 14.2162 10.0841 14.2265 10.0835 14.2367C10.089 14.6179 10.2054 14.9895 10.4188 15.3074C10.6322 15.6252 10.9336 15.876 11.2872 16.0298C11.6408 16.1836 12.0318 16.2341 12.4136 16.1752C12.7955 16.1163 13.1521 15.9505 13.4413 15.6975C13.7304 15.4445 13.9398 15.1149 14.0446 14.748C14.1494 14.381 14.1451 13.9921 14.0324 13.6274C13.9197 13.2628 13.7033 12.9377 13.4088 12.6908C13.1142 12.444 12.7541 12.2857 12.3711 12.2348C12.367 12.2351 12.3629 12.2351 12.3588 12.2348L12.2873 12.2246C11.0383 12.0436 10.5654 11.7594 10.4217 11.1012C10.2755 10.4302 10.5979 9.83414 11.278 9.68873C11.9356 9.54876 12.3356 9.84138 12.9093 10.1545L12.9705 10.1871C12.9797 10.1922 12.9885 10.1981 12.9968 10.2046C13.3341 10.3906 13.7184 10.4771 14.1042 10.4539C14.4899 10.4308 14.8607 10.2989 15.1727 10.074C15.4847 9.84901 15.7246 9.54046 15.864 9.18496C16.0035 8.82946 16.0365 8.44195 15.9592 8.06847C15.882 7.69499 15.6976 7.35124 15.4281 7.07805C15.1586 6.80487 14.8153 6.61374 14.4389 6.52736C14.0626 6.44098 13.669 6.46299 13.3049 6.59077C12.9408 6.71855 12.6216 6.94673 12.3851 7.24821C12.3837 7.25174 12.3821 7.25516 12.3802 7.25847C12.3637 7.27958 12.3478 7.29949 12.3313 7.3188C11.549 8.29199 11.0645 8.55203 10.4156 8.34448C9.75316 8.13452 9.39045 7.56014 9.60392 6.90732C9.81005 6.27562 10.267 6.08014 10.8272 5.74649L10.8884 5.7121C10.8976 5.70667 10.9074 5.70305 10.9171 5.69822C11.2483 5.5022 11.5154 5.21661 11.6869 4.87532C11.8585 4.53402 11.9271 4.15136 11.8848 3.77274C11.8424 3.39411 11.6909 3.03541 11.4481 2.7392C11.2053 2.44299 10.8814 2.22169 10.515 2.10158C10.1485 1.98146 9.75477 1.96756 9.38054 2.06153C9.0063 2.1555 8.66725 2.3534 8.40361 2.63173C8.13996 2.91007 7.9628 3.25716 7.89313 3.63184C7.82346 4.00651 7.86421 4.39303 8.01055 4.74554C8.01055 4.74916 8.01606 4.75218 8.01728 4.7552L8.04358 4.82217C8.50844 5.97938 8.49621 6.5254 7.99037 6.97731C7.47413 7.43766 6.78908 7.45998 6.32177 6.95197C5.87037 6.46024 5.92725 5.97214 5.91563 5.32294C5.91563 5.30062 5.91563 5.2789 5.91563 5.25597C5.91502 5.24572 5.91502 5.23545 5.91563 5.2252C5.91155 4.90268 5.82809 4.58597 5.67245 4.30232C5.5168 4.01866 5.29363 3.77655 5.02211 3.59681C4.7506 3.41707 4.43889 3.30509 4.11379 3.2705C3.78869 3.23591 3.45994 3.27975 3.15582 3.39824C2.8517 3.51673 2.58131 3.70632 2.36792 3.95072C2.15453 4.19511 2.00453 4.48698 1.93082 4.80122C1.85711 5.11546 1.86189 5.44266 1.94477 5.75467C2.02764 6.06668 2.18611 6.35416 2.40656 6.59238L2.40411 6.59479Z" fill="#CDEDD3"/>
</svg>
