<svg width="31" height="30" viewBox="0 0 31 30" fill="none" xmlns="http://www.w3.org/2000/svg">
<path d="M4.65797 8.91231C5.27528 9.58714 6.11528 10.0235 7.02813 10.1434C7.03563 10.1429 7.04316 10.1429 7.05066 10.1434L7.1893 10.1633C9.60924 10.5144 10.5253 11.0656 10.8038 12.3424C11.0882 13.6437 10.4637 14.8 9.14469 15.082C7.87073 15.3535 7.09569 14.7859 5.98527 14.1786L5.86676 14.1154C5.84867 14.1051 5.83125 14.0938 5.81461 14.0814C5.16068 13.7215 4.41589 13.5545 3.6687 13.6003C2.92151 13.6461 2.20331 13.9027 1.59943 14.3396C0.995541 14.7765 0.531335 15.3754 0.261955 16.0652C-0.00742576 16.7549 -0.0706631 17.5066 0.0797511 18.2308C0.230165 18.955 0.587907 19.6213 1.11049 20.1507C1.63308 20.68 2.29854 21.0501 3.02784 21.217C3.75714 21.3839 4.51964 21.3406 5.22474 21.0922C5.92985 20.8438 6.54795 20.4008 7.00562 19.8158C7.00832 19.8089 7.01149 19.8023 7.0151 19.7959C7.0471 19.7549 7.07791 19.7163 7.10991 19.6789C8.62445 17.7912 9.56303 17.2868 10.8204 17.6894C12.1038 18.0966 12.8078 19.2107 12.3942 20.477C11.9948 21.7023 11.1096 22.0814 10.024 22.7274L9.91145 22.7953C9.89249 22.8058 9.8747 22.8129 9.85574 22.8222C9.21282 23.2013 8.69362 23.7547 8.35983 24.4166C8.02604 25.0785 7.89171 25.8211 7.97277 26.5562C8.05384 27.2913 8.3469 27.9879 8.81714 28.5634C9.28739 29.1388 9.91504 29.5688 10.6255 29.8024C11.336 30.0359 12.0994 30.0631 12.8251 29.8807C13.5507 29.6983 14.2081 29.3141 14.7191 28.7736C15.2301 28.2331 15.5733 27.5591 15.7077 26.8317C15.8422 26.1043 15.7624 25.354 15.4778 24.6701C15.4729 24.6642 15.4686 24.658 15.4647 24.6514C15.4458 24.6069 15.4304 24.5659 15.4138 24.5215C14.5119 22.2769 14.5368 21.2178 15.5169 20.3412C16.5159 19.4483 17.8444 19.405 18.7486 20.3904C19.6244 21.3442 19.513 22.2909 19.5367 23.5443C19.5367 23.5876 19.5367 23.6309 19.5367 23.6754C19.5379 23.6952 19.5379 23.7152 19.5367 23.735C19.5475 24.4744 19.773 25.1952 20.1864 25.8117C20.5999 26.4282 21.1838 26.9146 21.869 27.213C22.5541 27.5114 23.3116 27.6092 24.0514 27.495C24.7912 27.3807 25.4823 27.0591 26.0424 26.5683C26.6026 26.0776 27.0083 25.4384 27.2113 24.7266C27.4144 24.0149 27.4062 23.2605 27.1878 22.5532C26.9695 21.8459 26.5501 21.2154 25.9795 20.7365C25.4088 20.2577 24.711 19.9507 23.9689 19.8521C23.961 19.8526 23.9531 19.8526 23.9452 19.8521L23.8066 19.8322C21.3866 19.4811 20.4705 18.9299 20.192 17.6531C19.9088 16.3518 20.5334 15.1955 21.8512 14.9135C23.1251 14.642 23.9002 15.2096 25.0118 15.8169L25.1303 15.8801C25.1482 15.8901 25.1652 15.9014 25.1812 15.9141C25.8348 16.2748 26.5795 16.4427 27.3268 16.3977C28.0741 16.3528 28.7927 16.097 29.3971 15.6607C30.0015 15.2244 30.4664 14.6259 30.7366 13.9363C31.0067 13.2468 31.0707 12.4952 30.921 11.7707C30.7713 11.0463 30.4142 10.3796 29.892 9.84967C29.3699 9.31979 28.7047 8.94906 27.9754 8.78151C27.2462 8.61397 26.4836 8.65666 25.7782 8.90451C25.0728 9.15236 24.4543 9.59496 23.9962 10.1797C23.9935 10.1866 23.9903 10.1932 23.9867 10.1996C23.9547 10.2406 23.9239 10.2792 23.8919 10.3166C22.3762 12.2043 21.4376 12.7087 20.1802 12.3061C18.8967 11.8989 18.194 10.7847 18.6076 9.51851C19.007 8.29323 19.8922 7.91406 20.9778 7.2669L21.0963 7.20019C21.114 7.18966 21.133 7.18264 21.152 7.17327C21.7935 6.79307 22.3111 6.23911 22.6434 5.57712C22.9757 4.91513 23.1088 4.1729 23.0267 3.4385C22.9447 2.70409 22.651 2.00834 22.1806 1.43379C21.7102 0.85924 21.0828 0.430009 20.3727 0.197026C19.6627 -0.0359577 18.8999 -0.0629141 18.1748 0.119355C17.4497 0.301624 16.7928 0.685468 16.282 1.22534C15.7712 1.76522 15.4279 2.43846 15.2929 3.1652C15.158 3.89194 15.2369 4.64165 15.5204 5.32541C15.5204 5.33243 15.5311 5.33828 15.5335 5.34413L15.5844 5.47403C16.4851 7.71862 16.4614 8.77773 15.4813 9.65426C14.4811 10.5472 13.1538 10.5905 12.2484 9.60511C11.3738 8.65133 11.4841 7.70458 11.4615 6.44536C11.4615 6.40206 11.4615 6.35993 11.4615 6.31546C11.4604 6.29558 11.4604 6.27566 11.4615 6.25578C11.4536 5.63021 11.2919 5.0159 10.9904 4.4657C10.6888 3.9155 10.2564 3.44589 9.73035 3.09726C9.2043 2.74864 8.60035 2.53143 7.97047 2.46434C7.34059 2.39724 6.70363 2.48227 6.1144 2.7121C5.52516 2.94193 5.00129 3.30968 4.58785 3.78372C4.17441 4.25775 3.88378 4.82388 3.74096 5.4334C3.59814 6.04291 3.60742 6.67757 3.76798 7.28276C3.92855 7.88796 4.23559 8.44557 4.66271 8.90763L4.65797 8.91231Z" fill="#CDEDD3"/>
</svg>
