<svg width="215" height="216" viewBox="0 0 215 216" fill="none" xmlns="http://www.w3.org/2000/svg">
<path d="M107.23 215.057C166.451 215.057 214.46 167.049 214.46 107.827C214.46 48.6059 166.451 0.597412 107.23 0.597412C48.0085 0.597412 0 48.6059 0 107.827C0 167.049 48.0085 215.057 107.23 215.057Z" fill="#F0DC82"/>
<mask id="mask0_1765_4453" style="mask-type:luminance" maskUnits="userSpaceOnUse" x="0" y="0" width="215" height="216">
<path d="M107.23 215.057C166.451 215.057 214.46 167.049 214.46 107.827C214.46 48.6059 166.451 0.597412 107.23 0.597412C48.0085 0.597412 0 48.6059 0 107.827C0 167.049 48.0085 215.057 107.23 215.057Z" fill="white"/>
</mask>
<g mask="url(#mask0_1765_4453)">
<path d="M18.3809 91.5975C18.3809 51.2375 46.1409 20.6475 88.7209 20.6475C116.471 20.6475 136.961 32.3075 148.321 55.3375C159.671 32.3375 180.181 20.6475 207.931 20.6475C250.501 20.6475 278.261 51.2375 278.261 91.6475C278.261 124.137 262.801 148.427 232.261 163.877C218.071 171.127 206.711 177.437 198.511 183.107C182.431 194.107 168.241 213.107 164.771 244.617H131.971C130.401 228.837 126.301 215.917 119.671 206.137C113.361 196.357 106.111 188.477 97.9109 183.137C90.0309 177.467 78.6709 171.137 64.4809 163.907C33.8409 148.377 18.3809 124.087 18.3809 91.5975Z" fill="white"/>
</g>
<path d="M60.8434 78.1035V56.2512H52.8743C52.8743 58.0555 52.7741 60.1104 52.6237 62.3658C52.4733 64.6212 52.2729 66.626 52.0724 68.3301C51.6714 70.8361 51.2705 72.8409 50.7693 74.4447C50.2681 76.0486 49.6666 77.3016 48.9649 78.1035H60.8434ZM66.0057 56.2512V78.1035H70.4664V87.1752H68.8125V85.9222C68.8125 83.8172 68.3113 82.2634 67.3089 81.261C66.3065 80.2586 64.7527 79.7574 62.7479 79.7574H51.1702C49.1153 79.7574 47.6117 80.2586 46.6093 81.261C45.6069 82.2634 45.1057 83.8172 45.1057 85.9222V87.1752H43.5019V78.1035H46.3086C47.1606 77.502 47.9124 76.3994 48.5139 74.7956C49.1153 73.1917 49.6165 71.1368 50.0175 68.5306C50.1678 67.4279 50.3182 66.0246 50.4685 64.3706C50.5688 62.7668 50.7191 60.0603 50.8695 56.2512H46.9601V54.6473H70.3161V56.2512H66.0057ZM85.9656 54.0459C89.2736 54.0459 92.1304 55.2989 94.4359 57.8049C96.7414 60.3109 97.9443 63.4183 97.9443 67.2274C97.9443 71.0366 96.7414 74.1941 94.4359 76.65C92.1304 79.1059 89.2736 80.3088 85.9656 80.3088C82.5074 80.3088 79.6505 79.1059 77.4452 76.7001C75.1898 74.2944 74.0872 71.1368 74.0872 67.2274C74.0872 63.3181 75.1898 60.1605 77.4452 57.7046C79.6505 55.2989 82.5074 54.0459 85.9656 54.0459ZM85.9656 55.75C83.7102 55.75 82.0563 56.6521 81.0539 58.4564C80.0014 60.2608 79.5002 63.2178 79.5002 67.2274C79.5002 71.237 80.0014 74.144 81.0539 75.9483C82.0563 77.7526 83.7102 78.6548 85.9656 78.6548C88.1208 78.6548 89.7748 77.7025 90.8774 75.798C91.98 73.8934 92.5314 71.0366 92.5314 67.2274C92.5314 63.4183 91.98 60.5615 90.8774 58.6569C89.7748 56.7524 88.1208 55.75 85.9656 55.75ZM115.153 54.6974C118.461 54.6974 121.268 55.9003 123.574 58.256C125.879 60.6116 127.082 63.5687 127.082 67.1272C127.082 70.6857 125.829 73.7932 123.373 76.3994C120.917 79.0056 118.111 80.3088 114.903 80.3088C111.294 80.3088 108.337 78.9054 106.032 76.0987C103.726 73.292 102.573 69.533 102.573 64.9219C102.573 58.5567 103.626 53.695 105.781 50.3871C107.936 47.0792 111.495 45.0744 116.406 44.473C117.008 44.4228 117.81 44.3727 118.912 44.2725C119.965 44.1722 120.717 44.1221 121.168 44.0219C122.421 43.8715 123.323 43.5708 123.824 43.1698C124.325 42.7689 124.576 42.2176 124.576 41.4658H126.08C126.08 43.1197 125.829 44.473 125.328 45.4754C124.827 46.5279 124.075 47.2797 123.072 47.7809C122.571 48.0315 122.02 48.232 121.418 48.3823C120.767 48.5828 118.912 48.7833 115.855 49.0339C113.249 49.2845 111.294 49.7356 109.941 50.4372C108.538 51.1389 107.485 52.0912 106.683 53.3442C105.931 54.5471 105.38 55.9504 105.029 57.6545C104.628 59.3586 104.478 61.3634 104.478 63.6689H104.779C105.23 60.9123 106.382 58.707 108.287 57.1032C110.192 55.4994 112.447 54.6974 115.153 54.6974ZM114.903 56.3514C112.647 56.3514 110.943 57.2536 109.841 59.0579C108.688 60.8622 108.137 63.5687 108.137 67.1272C108.137 70.786 108.688 73.6428 109.891 75.6476C111.044 77.6524 112.698 78.6548 114.903 78.6548C116.908 78.6548 118.562 77.6023 119.815 75.4972C121.018 73.3922 121.669 70.6356 121.669 67.1773C121.669 63.7692 121.068 61.1128 119.865 59.2082C118.662 57.3037 117.008 56.3514 114.903 56.3514Z" fill="#1E1E1E"/>
<path d="M72.671 113.755C74.7259 113.755 76.2295 112.852 77.2319 111.048C78.1842 109.244 78.6854 106.387 78.7355 102.377C78.7355 98.4679 78.2844 95.6612 77.3322 93.8569C76.3298 92.0526 74.8262 91.1504 72.7712 91.1504C70.8667 91.1504 69.313 92.1528 68.2103 94.0574C67.0576 95.9619 66.5062 98.5682 66.5062 101.776V104.683C66.5062 107.84 66.9573 110.146 67.9597 111.599C68.912 113.053 70.4657 113.755 72.671 113.755ZM66.5062 125.633H72.0696V127.487H57.4345V125.633H61.3439V91.7017H57.4345V89.8473C59.8904 89.8473 61.6446 89.8473 62.6971 89.747C63.6995 89.6468 64.4513 89.4463 64.9525 89.1456L65.6542 89.5967V96.9142C65.9549 94.6087 66.807 92.7542 68.3106 91.3509C69.764 89.9475 71.6185 89.2458 73.8739 89.2458C76.7307 89.2458 79.1365 90.4988 81.1413 92.9547C83.1461 95.4106 84.1485 98.518 84.1485 102.277C84.1485 106.136 83.0458 109.294 80.9408 111.8C78.8358 114.306 76.2295 115.509 73.1221 115.509C71.5684 115.509 70.2652 115.258 69.2127 114.657C68.1101 114.105 67.2079 113.253 66.5062 112.05V125.633ZM97.3907 91.4511V100.523H100.799C104.207 100.523 106.914 101.174 108.818 102.377C110.723 103.58 111.725 105.334 111.725 107.64C111.725 109.996 110.773 111.8 108.868 113.053C106.964 114.356 104.257 114.957 100.799 114.957H88.319V113.303H92.2284V91.4511H88.319V89.8473H102.052V91.4511H97.3907ZM124.405 114.957H111.625V113.303H115.384V91.4511H111.174V89.8473H124.405V91.4511H120.546V113.303H124.405V114.957ZM100.298 102.127H97.3907V113.303H100.348C102.353 113.303 103.856 112.852 104.859 111.9C105.861 110.998 106.362 109.544 106.362 107.59C106.362 105.685 105.861 104.282 104.959 103.43C104.007 102.578 102.453 102.127 100.298 102.127ZM137.232 113.303H141.192V114.957H128.16V113.303H132.07V91.4511H128.16V89.8473H141.192V91.4511H137.232V107.89L148.108 93.907V91.4511H144.149V89.8473H157.13V91.4511H153.271V113.303H157.13V114.957H144.149V113.303H148.108V96.7137L137.232 110.697V113.303ZM148.108 75.513C149.01 75.513 149.712 75.8137 150.213 76.4151C150.714 77.0166 151.015 77.7684 151.015 78.6705C151.015 80.6753 150.213 82.4295 148.71 83.883C147.156 85.3866 145.151 86.0883 142.745 86.0883C140.29 86.0883 138.285 85.3866 136.781 83.883C135.227 82.4295 134.476 80.6753 134.476 78.6705C134.476 77.7684 134.726 77.0166 135.278 76.4151C135.779 75.8137 136.48 75.513 137.383 75.513C138.184 75.513 138.836 75.7636 139.337 76.2146C139.838 76.7158 140.089 77.3173 140.089 78.0691C140.089 79.0715 139.688 79.7732 138.936 80.2744C138.134 80.7756 137.132 80.9259 135.929 80.6252C136.531 81.4271 137.433 82.0787 138.636 82.5298C139.838 83.031 141.192 83.2314 142.745 83.2314C144.349 83.2314 145.753 83.031 147.006 82.5298C148.208 82.0787 149.161 81.4271 149.762 80.5751C148.359 80.9259 147.306 80.8758 146.555 80.4247C145.753 79.9736 145.402 79.1717 145.402 78.0691C145.402 77.3173 145.602 76.7158 146.103 76.2146C146.605 75.7636 147.256 75.513 148.108 75.513Z" fill="#1E1E1E"/>
<path d="M121.538 137.818C121.137 141.677 119.783 144.785 117.528 147.14C115.222 149.546 112.466 150.699 109.258 150.699C106.201 150.699 103.695 149.496 101.79 147.04C99.8857 144.634 99.0336 141.627 99.2842 138.018H95.3248L93.8212 150.147H88.6087L91.5156 126.641H87.3557L87.6063 125.037C90.1123 125.037 92.1171 124.987 93.6207 124.887C95.0742 124.787 95.9763 124.687 96.277 124.486L96.9286 124.987L95.5252 136.364H99.4346C99.9859 132.756 101.389 129.899 103.645 127.694C105.85 125.539 108.556 124.436 111.664 124.436C114.821 124.436 117.378 125.739 119.282 128.295C121.187 130.901 121.938 134.059 121.538 137.818ZM104.697 137.166C104.246 141.376 104.396 144.434 105.148 146.288C105.9 148.143 107.303 149.045 109.408 149.045C111.413 149.045 112.917 148.293 113.919 146.689C114.922 145.135 115.673 142.178 116.175 137.818C116.576 133.658 116.425 130.651 115.673 128.846C114.922 127.042 113.518 126.14 111.514 126.14C109.459 126.14 107.955 126.942 106.953 128.445C105.95 129.949 105.198 132.856 104.697 137.166ZM133.352 150.699C130.695 150.699 128.64 150.198 127.237 149.145C125.834 148.093 125.132 146.539 125.132 144.534C125.132 143.03 125.483 141.727 126.235 140.675C126.986 139.622 128.59 138.52 131.046 137.367C133.452 136.214 135.006 135.111 135.757 134.109C136.509 133.107 136.91 131.804 136.91 130.3C136.91 128.997 136.559 127.994 135.958 127.293C135.357 126.591 134.454 126.24 133.302 126.24C131.998 126.24 130.896 126.741 129.994 127.694C129.092 128.696 128.49 130.099 128.089 131.904H126.385C126.786 129.348 127.688 127.443 129.041 126.24C130.345 125.037 132.199 124.436 134.605 124.436C136.71 124.436 138.464 125.037 139.867 126.19C141.271 127.393 141.972 128.897 141.972 130.701C141.972 132.305 141.571 133.708 140.769 134.811C139.968 135.913 138.314 137.066 135.808 138.269C133.502 139.422 131.998 140.474 131.297 141.376C130.595 142.329 130.244 143.482 130.244 144.785C130.244 146.088 130.595 147.09 131.347 147.842C132.049 148.594 133.101 148.945 134.404 148.945C136.008 148.945 137.361 148.393 138.464 147.241C139.567 146.138 140.218 144.534 140.519 142.529H142.273C141.872 145.336 140.92 147.441 139.466 148.744C138.013 150.047 135.958 150.699 133.352 150.699ZM155.2 130.701C155.15 131.804 154.749 132.706 153.997 133.458C153.245 134.209 152.293 134.56 151.14 134.56C150.088 134.56 149.286 134.31 148.735 133.708C148.183 133.107 147.933 132.305 147.933 131.302C147.933 130.3 148.334 129.398 149.085 128.596C149.837 127.844 150.79 127.443 151.992 127.443C152.995 127.443 153.797 127.794 154.398 128.395C154.95 128.997 155.2 129.799 155.2 130.701ZM152.844 146.84C152.794 147.942 152.393 148.844 151.642 149.596C150.89 150.348 149.938 150.699 148.785 150.699C147.732 150.699 146.93 150.448 146.379 149.847C145.828 149.245 145.577 148.443 145.577 147.441C145.577 146.439 145.978 145.536 146.73 144.735C147.482 143.983 148.434 143.582 149.637 143.582C150.639 143.582 151.441 143.933 152.043 144.534C152.594 145.135 152.844 145.937 152.844 146.84ZM169.071 133.808C168.971 139.522 167.167 145.085 163.708 150.599C160.25 156.112 155.89 160.322 150.677 163.179L149.775 161.775C154.486 158.467 157.945 154.458 160.05 149.797C162.155 145.135 163.257 139.121 163.408 131.703C163.408 130.4 163.408 129.197 163.307 127.994C163.207 126.842 163.107 125.739 162.957 124.737C162.706 123.433 162.405 122.281 162.004 121.178C161.603 120.075 161.152 119.073 160.601 118.171C160.2 117.519 159.699 116.918 159.198 116.316C158.696 115.715 157.544 114.713 155.739 113.259L156.792 111.856C160.451 113.61 163.408 116.517 165.713 120.627C168.019 124.737 169.121 129.097 169.071 133.808Z" fill="#1E1E1E"/>
</svg>
