<svg width="21" height="18" viewBox="0 0 21 18" fill="none" xmlns="http://www.w3.org/2000/svg">
<path d="M0 5.7037C0 2.45167 2.24293 0 5.68451 0C7.92562 0 9.58193 0.937668 10.5009 2.78771C11.409 0.937668 13.0744 0 15.3173 0C18.7571 0 21 2.4589 21 5.7037C21 8.31617 19.7523 10.2674 17.2787 11.5104C16.3388 11.9683 15.4289 12.4849 14.5545 13.0569C13.2542 13.944 12.1082 15.4652 11.8303 18H9.17512C9.04799 16.7353 8.71746 15.6929 8.1817 14.907C7.73146 14.1747 7.13196 13.5445 6.42186 13.0569C5.55977 12.4782 4.65728 11.9614 3.72126 11.5104C1.2495 10.2656 0 8.31617 0 5.7037Z" fill="white"/>
</svg>
