<svg width="30" height="31" viewBox="0 0 30 31" fill="none" xmlns="http://www.w3.org/2000/svg">
<path d="M8.91231 26.342C9.58714 25.7247 10.0235 24.8847 10.1434 23.9719C10.1429 23.9644 10.1429 23.9568 10.1434 23.9493L10.1633 23.8107C10.5144 21.3908 11.0656 20.4747 12.3424 20.1962C13.6437 19.9118 14.8 20.5363 15.082 21.8553C15.3535 23.1293 14.7859 23.9043 14.1786 25.0147L14.1154 25.1332C14.1051 25.1513 14.0938 25.1688 14.0814 25.1854C13.7215 25.8393 13.5545 26.5841 13.6003 27.3313C13.6461 28.0785 13.9027 28.7967 14.3396 29.4006C14.7765 30.0045 15.3754 30.4687 16.0652 30.738C16.7549 31.0074 17.5066 31.0707 18.2308 30.9202C18.955 30.7698 19.6213 30.4121 20.1507 29.8895C20.68 29.3669 21.0501 28.7015 21.217 27.9722C21.3839 27.2429 21.3406 26.4804 21.0922 25.7753C20.8438 25.0701 20.4008 24.452 19.8158 23.9944C19.8089 23.9917 19.8023 23.9885 19.7959 23.9849C19.7549 23.9529 19.7163 23.9221 19.6789 23.8901C17.7912 22.3756 17.2868 21.437 17.6894 20.1796C18.0966 18.8962 19.2107 18.1922 20.477 18.6058C21.7023 19.0052 22.0814 19.8904 22.7274 20.976L22.7953 21.0885C22.8058 21.1075 22.8129 21.1253 22.8222 21.1443C23.2013 21.7872 23.7547 22.3064 24.4166 22.6402C25.0785 22.974 25.8211 23.1083 26.5562 23.0272C27.2913 22.9462 27.9879 22.6531 28.5634 22.1829C29.1388 21.7126 29.5688 21.085 29.8024 20.3745C30.0359 19.664 30.0631 18.9006 29.8807 18.1749C29.6983 17.4493 29.3141 16.7919 28.7736 16.2809C28.2331 15.7699 27.5591 15.4267 26.8317 15.2923C26.1043 15.1578 25.354 15.2376 24.6701 15.5222C24.6642 15.5271 24.658 15.5314 24.6514 15.5353C24.6069 15.5542 24.5659 15.5696 24.5215 15.5862C22.2769 16.4881 21.2178 16.4632 20.3412 15.4831C19.4483 14.4841 19.405 13.1556 20.3904 12.2514C21.3442 11.3756 22.2909 11.487 23.5443 11.4633C23.5876 11.4633 23.6309 11.4633 23.6754 11.4633C23.6952 11.4621 23.7152 11.4621 23.735 11.4633C24.4744 11.4525 25.1952 11.227 25.8117 10.8136C26.4282 10.4001 26.9146 9.81615 27.213 9.13101C27.5114 8.44587 27.6092 7.68839 27.495 6.94858C27.3807 6.20876 27.0591 5.51772 26.5683 4.95757C26.0776 4.39743 25.4384 3.99172 24.7266 3.78868C24.0149 3.58563 23.2605 3.59379 22.5532 3.81215C21.8459 4.03052 21.2154 4.44993 20.7365 5.02054C20.2577 5.59116 19.9507 6.28898 19.8521 7.03109C19.8526 7.03898 19.8526 7.04691 19.8521 7.0548L19.8322 7.19345C19.4811 9.61339 18.9299 10.5295 17.6531 10.808C16.3518 11.0912 15.1955 10.4666 14.9135 9.14883C14.642 7.87487 15.2096 7.09983 15.8169 5.98823L15.8801 5.86972C15.8901 5.85184 15.9014 5.83479 15.9141 5.81875C16.2748 5.1652 16.4427 4.42053 16.3977 3.67321C16.3528 2.92588 16.097 2.20732 15.6607 1.60288C15.2244 0.998451 14.6259 0.53355 13.9363 0.263416C13.2468 -0.00671577 12.4952 -0.0707264 11.7707 0.0789852C11.0463 0.228697 10.3796 0.585844 9.84967 1.10799C9.31979 1.63013 8.94906 2.29533 8.78151 3.02456C8.61397 3.75379 8.65666 4.5164 8.90451 5.22178C9.15236 5.92717 9.59496 6.54568 10.1797 7.00384C10.1866 7.00654 10.1932 7.00971 10.1996 7.01333C10.2406 7.04532 10.2792 7.07613 10.3166 7.10812C12.2043 8.62385 12.7087 9.56244 12.3061 10.8198C11.8989 12.1033 10.7847 12.806 9.51851 12.3924C8.29323 11.993 7.91406 11.1078 7.2669 10.0222L7.20019 9.90373C7.18966 9.88596 7.18264 9.867 7.17327 9.84804C6.79307 9.2065 6.23911 8.68886 5.57712 8.35656C4.91513 8.02425 4.1729 7.89124 3.4385 7.97327C2.70409 8.0553 2.00834 8.34895 1.43379 8.81938C0.85924 9.2898 0.430009 9.91725 0.197026 10.6273C-0.0359577 11.3373 -0.0629141 12.1001 0.119355 12.8252C0.301624 13.5503 0.685468 14.2072 1.22534 14.718C1.76522 15.2288 2.43846 15.5721 3.1652 15.7071C3.89194 15.842 4.64165 15.7631 5.32541 15.4796C5.33243 15.4796 5.33828 15.4689 5.34413 15.4665L5.47403 15.4156C7.71862 14.5149 8.77773 14.5386 9.65426 15.5187C10.5472 16.5189 10.5905 17.8462 9.60511 18.7516C8.65133 19.6262 7.70458 19.5159 6.44536 19.5385C6.40206 19.5385 6.35993 19.5385 6.31546 19.5385C6.29558 19.5396 6.27566 19.5396 6.25578 19.5385C5.63021 19.5464 5.0159 19.7081 4.4657 20.0096C3.9155 20.3112 3.44589 20.7436 3.09726 21.2697C2.74864 21.7957 2.53143 22.3996 2.46434 23.0295C2.39724 23.6594 2.48227 24.2964 2.7121 24.8856C2.94193 25.4748 3.30968 25.9987 3.78372 26.4122C4.25775 26.8256 4.82388 27.1162 5.4334 27.259C6.04291 27.4019 6.67757 27.3926 7.28276 27.232C7.88796 27.0715 8.44557 26.7644 8.90763 26.3373L8.91231 26.342Z" fill="#CDEDD3"/>
</svg>
