<svg width="22" height="24" viewBox="0 0 22 24" fill="none" xmlns="http://www.w3.org/2000/svg">
<path d="M1.772 7.4301C2.256 7.4301 2.63 7.5841 2.894 7.8921C3.158 8.2001 3.312 8.5521 3.312 8.99211C3.312 9.43211 3.158 9.78411 2.894 10.0701C2.63 10.3781 2.256 10.5101 1.772 10.5101C1.288 10.5101 0.892 10.3781 0.628 10.0701C0.342 9.78411 0.21 9.43211 0.21 8.99211C0.21 8.5521 0.342 8.2001 0.628 7.8921C0.892 7.5841 1.288 7.4301 1.772 7.4301ZM1.772 14.4701C2.256 14.4701 2.63 14.6241 2.894 14.9321C3.158 15.2401 3.312 15.5921 3.312 16.0321C3.312 16.4721 3.158 16.8241 2.894 17.1101C2.63 17.4181 2.256 17.5501 1.772 17.5501C1.288 17.5501 0.892 17.4181 0.628 17.1101C0.342 16.8241 0.21 16.4721 0.21 16.0321C0.21 15.5921 0.342 15.2401 0.628 14.9321C0.892 14.6241 1.288 14.4701 1.772 14.4701ZM9.85425 0.478104C10.0963 0.522105 10.2943 0.654105 10.4703 0.874105C10.6463 1.0941 10.7123 1.33611 10.6683 1.55611C10.6242 1.75411 10.5803 1.95211 10.4923 2.1281C10.4043 2.3261 10.2723 2.56811 10.0743 2.85411C9.89825 3.1181 9.78825 3.3161 9.72225 3.4481C9.65625 3.58011 9.61225 3.69011 9.61225 3.8221L9.15025 3.7341C9.15025 3.6021 9.15025 3.47011 9.15025 3.3381C9.12825 3.2061 9.06225 2.9861 8.97425 2.6781C8.84225 2.34811 8.77625 2.0841 8.75425 1.8861C8.73225 1.6881 8.73225 1.4901 8.77625 1.2921C8.82025 1.0501 8.95225 0.852105 9.17225 0.676105C9.39225 0.522105 9.61225 0.456105 9.85425 0.478104ZM8.40225 2.9421C8.53425 3.2061 8.62225 3.4041 8.71025 3.5141C8.79825 3.6461 8.88625 3.7341 8.99625 3.8221L8.71025 4.17411C8.60025 4.1081 8.49025 4.0421 8.35825 3.97611C8.22625 3.9321 8.00625 3.86611 7.72025 3.8001C7.34625 3.7341 7.06025 3.66811 6.88425 3.58011C6.70825 3.49211 6.53225 3.4041 6.40025 3.27211C6.18025 3.1401 6.07025 2.9201 6.04825 2.65611C6.02625 2.3921 6.09225 2.1721 6.24625 1.95211C6.37825 1.7761 6.57625 1.6661 6.84025 1.6221C7.10425 1.5781 7.34625 1.6221 7.56625 1.75411C7.69825 1.8861 7.83025 2.04011 7.96225 2.1941C8.09425 2.37011 8.22625 2.6121 8.40225 2.9421ZM12.9123 2.9201C13.0003 3.16211 13.0003 3.4041 12.9123 3.6461C12.8023 3.9101 12.6263 4.0641 12.3843 4.1301C12.2083 4.2181 12.0103 4.28411 11.8123 4.30611C11.6143 4.3501 11.3283 4.3501 10.9763 4.30611C10.6683 4.28411 10.4263 4.28411 10.2943 4.30611C10.1623 4.3281 10.0303 4.3501 9.92025 4.39411L9.74425 3.9321C9.85425 3.88811 9.96425 3.8221 10.0963 3.7341C10.2063 3.6461 10.3603 3.49211 10.5803 3.27211C10.8223 3.0081 11.0203 2.8321 11.1963 2.7001C11.3503 2.5901 11.5263 2.5021 11.7023 2.4141C11.9223 2.3261 12.1643 2.34811 12.4063 2.4361C12.6483 2.54611 12.8243 2.7001 12.9123 2.9201ZM8.66625 4.3501L8.84225 4.7681C8.71025 4.8341 8.60025 4.90011 8.49025 4.98811C8.38025 5.0761 8.22625 5.2301 8.02825 5.4281C7.76425 5.71411 7.56625 5.91211 7.41225 6.02211C7.23625 6.1541 7.06025 6.24211 6.88425 6.30811C6.64225 6.4181 6.40025 6.4181 6.15825 6.30811C5.91625 6.22011 5.76225 6.0441 5.67425 5.82411C5.56425 5.60411 5.56425 5.3841 5.67425 5.12011C5.76225 4.8561 5.93825 4.68011 6.18025 4.59211C6.35625 4.5261 6.55425 4.48211 6.75225 4.4381C6.95025 4.4161 7.23625 4.4161 7.61025 4.4381C7.91825 4.4601 8.13825 4.4601 8.27025 4.4381C8.40225 4.4381 8.53425 4.39411 8.66625 4.3501ZM12.1863 5.4721C12.3843 5.62611 12.4943 5.82411 12.5383 6.0881C12.5603 6.3521 12.4943 6.59411 12.3623 6.79211C12.2083 6.99011 12.0103 7.10011 11.7463 7.14411C11.4823 7.18811 11.2403 7.14411 11.0423 6.9681C10.8663 6.83611 10.7343 6.7041 10.6023 6.52811C10.4703 6.37411 10.3383 6.13211 10.1843 5.7801C10.0523 5.51611 9.94225 5.3401 9.87625 5.20811C9.78825 5.09811 9.70025 5.01011 9.61225 4.9221L9.87625 4.5481C9.96425 4.6361 10.0963 4.70211 10.2283 4.7461C10.3603 4.79011 10.5583 4.8561 10.8443 4.90011C11.1963 4.98811 11.4823 5.0761 11.6803 5.1641C11.8563 5.2521 12.0323 5.3401 12.1863 5.4721ZM9.59025 6.02211C9.70025 6.37411 9.76625 6.6601 9.78825 6.8581C9.81025 7.05611 9.81025 7.25411 9.78825 7.45211C9.74425 7.71611 9.61225 7.91411 9.39225 8.06811C9.17225 8.22211 8.95225 8.2881 8.73225 8.2441C8.46825 8.22211 8.27025 8.11211 8.11625 7.8921C7.94025 7.69411 7.89625 7.45211 7.94025 7.18811C7.96225 6.99011 8.00625 6.79211 8.09425 6.6161C8.18225 6.44011 8.31425 6.1761 8.51225 5.8461C8.66625 5.62611 8.77625 5.4281 8.84225 5.29611C8.88625 5.1641 8.93025 5.0541 8.97425 4.9221L9.43625 5.01011C9.41425 5.1421 9.41425 5.2741 9.43625 5.40611C9.43625 5.5381 9.50225 5.7581 9.59025 6.02211ZM21.5108 12.0281C21.5108 14.2721 20.8728 16.4501 19.5968 18.5181C18.3208 20.6081 16.7588 22.1041 14.8888 23.0281L14.4928 22.4121C15.3508 21.7741 15.8788 21.3561 16.0988 21.1361C16.3188 20.9381 16.5168 20.7181 16.7148 20.4981C17.0008 20.1461 17.2648 19.7501 17.5068 19.3101C17.7488 18.8701 17.9688 18.4081 18.1448 17.9021C18.2768 17.4841 18.4088 17.0221 18.5188 16.5381C18.6288 16.0541 18.7168 15.5481 18.7828 14.9981C18.8268 14.5581 18.8708 14.0741 18.9148 13.5901C18.9368 13.1061 18.9588 12.5781 18.9588 12.0281C18.9588 10.8181 18.8928 9.69611 18.7608 8.68411C18.6288 7.6721 18.4528 6.7261 18.1888 5.8901C17.8588 4.9221 17.4408 4.0641 16.9348 3.3381C16.4068 2.6341 15.5928 1.8861 14.4928 1.1161L14.8888 0.500104C16.6928 1.2921 18.2328 2.8321 19.5528 5.09811C20.8508 7.3641 21.5108 9.67411 21.5108 12.0281Z" fill="white"/>
</svg>
