<svg width="21" height="19" viewBox="0 0 21 19" fill="none" xmlns="http://www.w3.org/2000/svg">
<path d="M0 6.30112C0 3.04908 2.24293 0.597412 5.68451 0.597412C7.92562 0.597412 9.58193 1.53508 10.5009 3.38513C11.409 1.53508 13.0744 0.597412 15.3173 0.597412C18.7571 0.597412 21 3.05631 21 6.30112C21 8.91358 19.7523 10.8648 17.2787 12.1078C16.3388 12.5657 15.4289 13.0823 14.5545 13.6543C13.2542 14.5414 12.1082 16.0626 11.8303 18.5974H9.17512C9.04799 17.3327 8.71746 16.2903 8.1817 15.5044C7.73146 14.7721 7.13196 14.1419 6.42186 13.6543C5.55977 13.0756 4.65728 12.5588 3.72126 12.1078C1.2495 10.863 0 8.91358 0 6.30112Z" fill="white"/>
</svg>
