<svg width="215" height="215" viewBox="0 0 215 215" fill="none" xmlns="http://www.w3.org/2000/svg">
<path d="M107.23 214.46C166.451 214.46 214.46 166.451 214.46 107.23C214.46 48.0085 166.451 0 107.23 0C48.0085 0 0 48.0085 0 107.23C0 166.451 48.0085 214.46 107.23 214.46Z" fill="#F0DC82"/>
<path d="M63.0799 33.3656L64.4336 35.7209L66.5013 34.5326C67.0628 34.2099 67.869 33.8376 68.7767 34.1175C69.655 34.3778 70.3939 35.283 70.7952 35.9814C71.2359 36.7483 71.4733 37.6684 71.3184 38.4132C71.0902 39.601 70.1101 40.1461 69.8088 40.3192L66.1389 42.4284L60.6299 32.8427L66.4086 29.5216L67.2429 30.9731L63.0799 33.3656ZM65.2678 37.1725L66.9205 40.0482L68.4131 39.1903C68.8924 38.9149 69.2738 38.6593 69.3763 38.1085C69.4246 37.8439 69.4079 37.4345 69.0695 36.8457C68.8885 36.5307 68.6113 36.1435 68.1427 35.9939C67.6389 35.8462 67.1712 36.0785 66.8015 36.291L65.2678 37.1725Z" fill="#1E1E1E"/>
<path d="M73.57 38.3671L72.936 36.8321C73.6125 36.7053 73.8464 36.2866 73.955 35.8518C74.1747 34.9474 73.8026 33.6772 72.8815 31.4472L71.2367 27.4649L76.8552 25.1442L81.0421 35.2808L79.3333 35.9866L75.7805 27.385L73.5649 28.3001L74.8031 31.2976C75.5507 33.1077 75.7963 33.9895 75.8718 34.5007C76.0947 35.697 75.9464 36.4871 75.6411 37.0201C75.3357 37.553 74.9032 37.9012 74.3384 38.1345C74.1212 38.2242 73.8631 38.2969 73.57 38.3671Z" fill="#1E1E1E"/>
<path d="M84.8022 31.586L84.7487 33.9917L82.9215 34.4701L83.3288 22.9742L85.0342 22.5277L91.0222 32.3494L89.1949 32.8278L87.9694 30.7568L84.8022 31.586ZM84.7908 29.8643L87.1358 29.2504L84.7675 24.9893L84.7908 29.8643Z" fill="#1E1E1E"/>
<path d="M94.819 22.2616L96.1041 31.5224L94.2644 31.7777L92.75 20.8643L98.5185 20.0638L98.7479 21.7164L94.819 22.2616Z" fill="#1E1E1E"/>
<path d="M100.712 25.331C100.672 23.3167 101.062 21.5614 102.299 20.4033C103.18 19.5829 104.09 19.4231 104.971 19.4056C105.852 19.388 106.768 19.5115 107.681 20.2962C108.962 21.4042 109.422 23.1426 109.462 25.1569C109.502 27.1712 109.112 28.9265 107.876 30.0846C106.995 30.905 106.085 31.0648 105.203 31.0823C104.322 31.0999 103.407 30.9764 102.494 30.1917C101.212 29.0837 100.752 27.3453 100.712 25.331ZM102.648 25.2925C102.67 26.3783 102.888 27.8538 103.597 28.6898C104.129 29.3247 104.682 29.4239 105.17 29.4142C105.658 29.4045 106.207 29.2834 106.713 28.6278C107.389 27.7643 107.548 26.2812 107.526 25.1954C107.505 24.1253 107.271 22.6344 106.577 21.798C106.045 21.1632 105.492 21.064 105.004 21.0737C104.516 21.0834 103.968 21.2045 103.461 21.86C102.802 22.7233 102.627 24.2224 102.648 25.2925Z" fill="#1E1E1E"/>
<path d="M115.55 21.766L112.875 21.4712L113.058 19.8128L120.255 20.606L120.072 22.2644L117.397 21.9695L116.372 31.2628L114.526 31.0593L115.55 21.766Z" fill="#1E1E1E"/>
<path d="M124.05 21.2564L128.145 22.2003C128.728 22.3347 129.489 22.607 129.954 23.3926C130.38 24.1369 130.295 24.925 130.171 25.4619C130.033 26.06 129.789 26.6984 129.156 27.1339C128.926 27.2908 128.6 27.4419 128.192 27.4609L128.175 27.5376C128.51 27.6956 128.866 27.9716 129.106 28.3337C129.392 28.7713 129.631 29.4885 129.376 30.5929C129.221 31.2677 128.92 32.1514 127.968 32.7074C127.069 33.2432 126.161 33.0499 125.486 32.8944L121.575 31.9929L124.05 21.2564ZM125.488 23.284L124.852 26.0448L126.508 26.4267C126.861 26.508 127.298 26.5763 127.679 26.3249C127.909 26.1679 128.117 25.893 128.216 25.4635C128.312 25.0494 128.317 24.679 128.177 24.3723C127.967 23.9523 127.59 23.7684 127.099 23.6553L125.488 23.284ZM124.484 27.64L123.756 30.7996L125.489 31.1991C125.98 31.3122 126.432 31.3841 126.888 31.0855C127.322 30.814 127.452 30.3916 127.548 29.9775C127.604 29.7321 127.716 29.1764 127.433 28.7234C127.192 28.2964 126.724 28.1561 126.248 28.0466L124.484 27.64Z" fill="#1E1E1E"/>
<path d="M132.029 28.8547C132.741 26.9701 133.756 25.4859 135.335 24.8709C136.458 24.4371 137.362 24.6273 138.186 24.9389C139.011 25.2504 139.815 25.7056 140.37 26.7737C141.147 28.2789 140.927 30.0635 140.215 31.9481C139.503 33.8328 138.488 35.3169 136.909 35.9319C135.786 36.3657 134.882 36.1756 134.058 35.864C133.233 35.5524 132.429 35.0972 131.874 34.0292C131.097 32.5239 131.317 30.7394 132.029 28.8547ZM133.84 29.539C133.456 30.555 133.11 32.0058 133.457 33.0457C133.715 33.833 134.191 34.1308 134.648 34.3033C135.104 34.4757 135.658 34.5674 136.372 34.1473C137.321 33.597 138.02 32.2797 138.404 31.2638C138.783 30.2626 139.12 28.7915 138.787 27.7571C138.529 26.9699 138.053 26.6721 137.596 26.4996C137.14 26.3271 136.586 26.2355 135.872 26.6555C134.938 27.2114 134.218 28.5378 133.84 29.539Z" fill="#1E1E1E"/>
<path d="M146.655 28.9051L149.781 30.6025C150.736 31.1207 151.505 31.682 151.715 32.7808C151.885 33.7866 151.539 34.6553 151.208 35.264C150.577 36.4259 149.806 36.9563 149.123 37.1586C148.12 37.4557 147.236 37.1371 146.462 36.7165L144.968 35.9054L143.03 39.4742L141.398 38.5879L146.655 28.9051ZM147.491 31.2576L145.764 34.4391L147.05 35.1376C147.424 35.3404 147.95 35.5906 148.507 35.391C148.785 35.2737 149.159 35.0468 149.49 34.4382C149.79 33.8849 149.862 33.4225 149.775 33.0885C149.662 32.4719 149.165 32.1664 148.791 31.9636L147.491 31.2576Z" fill="#1E1E1E"/>
<path d="M152.725 41.7721L160.53 37.4859L162.009 38.5632L155.508 47.4877L154.004 46.3919L158.749 39.877L150.944 44.1631L149.465 43.0859L155.966 34.1613L157.47 35.2571L152.725 41.7721Z" fill="#1E1E1E"/>
<path d="M165.951 44.2803L164 42.4262L165.15 41.2167L170.398 46.2044L169.249 47.4138L167.298 45.5597L160.857 52.3371L159.511 51.0577L165.951 44.2803Z" fill="#1E1E1E"/>
<path d="M170.658 53.4333L173.375 56.7541L172.091 57.8052L169.374 54.4844L166.95 56.4676L170.083 60.2975L168.798 61.3486L164.495 56.0886L172.979 49.1473L177.193 54.2982L175.908 55.3493L172.864 51.6285L170.658 53.4333Z" fill="#1E1E1E"/>
<path d="M169.64 62.1916L171.042 61.2861C171.29 61.9314 171.746 62.0864 172.196 62.1147C173.129 62.1673 174.317 61.5687 176.352 60.2531L179.988 57.9039L183.303 63.0333L174.048 69.0132L173.04 67.4532L180.893 62.3789L179.586 60.3562L176.85 62.1245C175.197 63.1923 174.37 63.5953 173.879 63.7629C172.738 64.2006 171.93 64.1978 171.348 63.993C170.766 63.7882 170.343 63.4241 170.01 62.9085C169.882 62.7102 169.763 62.4684 169.64 62.1916Z" fill="#1E1E1E"/>
<path d="M186.254 68.7296L182.429 70.557L183.329 72.4411C183.586 72.9794 183.964 73.8429 183.589 74.8053C183.287 75.5934 182.523 76.2538 181.617 76.687C180.597 77.1743 179.69 77.2072 179.047 77.0271C177.971 76.741 177.488 75.8756 177.231 75.3373L175.539 71.7958L185.455 67.058L186.254 68.7296ZM180.927 71.2745L177.839 72.7499L178.502 74.1382C178.739 74.634 178.957 75.0171 179.495 75.1602C179.977 75.2952 180.522 75.0873 180.819 74.9452C181.202 74.7624 181.607 74.5169 181.79 74.0637C181.974 73.6106 181.848 73.201 181.604 72.6911L180.927 71.2745Z" fill="#1E1E1E"/>
<path d="M184.771 80.568L180.075 82.1001L179.5 80.3357L189.967 76.9201L190.542 78.6845L186.356 80.0508L187.449 83.4002L191.635 82.034L192.211 83.7985L181.744 87.214L181.168 85.4496L185.864 83.9174L184.771 80.568Z" fill="#1E1E1E"/>
<path d="M185.215 91.9367L182.822 91.682L182.498 89.8212L193.92 91.189L194.222 92.9258L183.934 98.0709L183.61 96.2101L185.776 95.1622L185.215 91.9367ZM186.932 92.0694L187.347 94.4575L191.791 92.454L186.932 92.0694Z" fill="#1E1E1E"/>
<path d="M188.597 106.3L188.547 105.153L184.348 103.162L184.25 100.945L188.684 103.256C188.773 102.764 188.954 102.22 189.329 101.778C189.823 101.205 190.689 100.821 191.821 100.771C193.079 100.716 193.851 101.076 194.324 101.433C195.318 102.193 195.376 103.167 195.421 104.174L195.582 107.853L184.574 108.336L184.493 106.48L188.597 106.3ZM193.834 106.071L193.76 104.388C193.736 103.838 193.647 103.243 193.001 102.893C192.726 102.732 192.36 102.654 191.857 102.676C191.621 102.686 191.119 102.724 190.739 103.04C190.176 103.49 190.173 104.152 190.195 104.655L190.264 106.227L193.834 106.071Z" fill="#1E1E1E"/>
<path d="M189.798 115.351C191.79 115.648 193.456 116.325 194.391 117.738C195.053 118.743 195.059 119.667 194.929 120.539C194.799 121.411 194.525 122.293 193.598 123.062C192.292 124.141 190.501 124.304 188.509 124.007C186.516 123.71 184.85 123.032 183.915 121.62C183.253 120.614 183.247 119.691 183.377 118.819C183.507 117.947 183.782 117.065 184.708 116.296C186.014 115.217 187.805 115.054 189.798 115.351ZM189.512 117.266C188.438 117.106 186.947 117.075 186.004 117.635C185.289 118.053 185.099 118.582 185.027 119.064C184.956 119.547 184.983 120.108 185.545 120.717C186.284 121.527 187.72 121.932 188.794 122.092C189.852 122.25 191.362 122.267 192.302 121.723C193.017 121.305 193.207 120.776 193.279 120.293C193.351 119.811 193.323 119.249 192.761 118.641C192.02 117.846 190.571 117.423 189.512 117.266Z" fill="#1E1E1E"/>
<path d="M192.833 129.675L191.837 133.09C191.533 134.132 191.148 135.004 190.118 135.441C189.171 135.821 188.249 135.667 187.584 135.473C186.315 135.103 185.633 134.461 185.291 133.837C184.787 132.919 184.912 131.988 185.158 131.142L185.634 129.51L181.736 128.373L182.256 126.59L192.833 129.675ZM190.711 130.991L187.236 129.977L186.826 131.382C186.707 131.79 186.574 132.358 186.887 132.859C187.061 133.107 187.362 133.424 188.027 133.618C188.631 133.794 189.098 133.767 189.406 133.61C189.985 133.369 190.178 132.819 190.297 132.411L190.711 130.991Z" fill="#1E1E1E"/>
<path d="M187.31 140.646L178.708 137.093L179.414 135.384L189.55 139.571L187.337 144.929L185.802 144.295L187.31 140.646Z" fill="#1E1E1E"/>
<path d="M178.375 143.732L176.656 142.039L177.563 140.377L185.672 148.574L184.826 150.126L173.544 147.746L174.45 146.084L176.804 146.613L178.375 143.732ZM179.639 144.906L178.476 147.039L183.213 148.239L179.639 144.906Z" fill="#1E1E1E"/>
<path d="M174.617 154.854L170.663 151.938L171.759 150.452L180.573 156.953L179.477 158.439L175.952 155.839L173.871 158.659L177.397 161.259L176.301 162.745L167.487 156.245L168.583 154.759L172.537 157.675L174.617 154.854Z" fill="#1E1E1E"/>
<path d="M165.879 162.715L168.936 171.059L167.651 172.356L159.822 164.604L161.129 163.284L166.844 168.943L163.787 160.6L165.072 159.302L172.901 167.055L171.594 168.375L165.879 162.715Z" fill="#1E1E1E"/>
<path d="M159.763 169.788L158.308 170.93C158.064 170.619 157.65 170.22 157.257 170.026C156.196 169.493 155.387 170.127 155.176 170.293C154.878 170.527 154.581 170.841 154.48 171.301C154.333 171.959 154.652 172.493 154.925 172.841C155.169 173.152 155.626 173.657 156.318 173.617C156.725 173.598 157.13 173.321 157.379 173.126L158.162 172.511L159.197 173.829L158.538 174.346C158.289 174.541 158.01 174.8 157.891 175.135C157.799 175.428 157.785 175.921 158.204 176.456C158.605 176.966 159.035 177.13 159.38 177.161C159.903 177.213 160.236 176.971 160.473 176.786C160.721 176.591 161.055 176.248 161.161 175.743C161.275 175.171 161.063 174.594 160.709 174.169L162.164 173.027C162.535 173.5 163.055 174.418 163.1 175.346C163.122 176.475 162.452 177.362 161.407 178.182C160.91 178.572 159.996 179.149 158.98 179.083C157.852 179.003 157.168 178.234 156.827 177.799C156.514 177.401 156.086 176.752 156.165 175.906C156.188 175.628 156.295 175.303 156.525 174.981L156.486 174.932C156.051 175.172 155.669 175.171 155.365 175.168C154.773 175.131 154.013 174.802 153.281 173.87C152.501 172.875 152.421 171.852 152.573 171.15C152.71 170.581 153.11 169.785 154.216 168.917C155.223 168.126 156.16 167.732 157.379 168.082C158.401 168.385 159.101 169.021 159.763 169.788Z" fill="#1E1E1E"/>
<path d="M150.097 174.983L149.486 172.656L151.11 171.692L153.887 182.854L152.37 183.753L143.909 175.963L145.533 175L147.282 176.652L150.097 174.983ZM150.583 176.634L148.498 177.871L151.948 181.313L150.583 176.634Z" fill="#1E1E1E"/>
<path d="M139.987 179.763L136.685 181.163L140.332 189.765L138.623 190.489L134.976 181.887L133.847 182.366L132.299 178.513L133.819 177.868L134.789 180.156L141.045 177.504L145.342 187.641L143.633 188.365L139.987 179.763Z" fill="#1E1E1E"/>
<path d="M129.699 184.977L128.072 193.713L126.305 194.174L123.526 183.512L125.323 183.043L127.352 190.827L128.979 182.091L130.746 181.63L133.525 192.292L131.727 192.76L129.699 184.977Z" fill="#1E1E1E"/>
<path d="M115.193 188.908L116.333 188.769L117.993 184.428L120.196 184.16L118.235 188.759C118.733 188.81 119.289 188.948 119.758 189.288C120.368 189.737 120.818 190.57 120.955 191.695C121.107 192.945 120.808 193.742 120.488 194.241C119.807 195.291 118.84 195.425 117.84 195.546L114.184 195.991L112.853 185.054L114.696 184.83L115.193 188.908ZM115.826 194.111L117.498 193.907C118.045 193.841 118.631 193.706 118.93 193.035C119.069 192.749 119.119 192.378 119.059 191.878C119.03 191.644 118.954 191.145 118.609 190.791C118.117 190.264 117.457 190.313 116.957 190.374L115.394 190.564L115.826 194.111Z" fill="#1E1E1E"/>
<path d="M61.9762 172.644L60.9425 171.981L63.2506 168.525L64.6156 169.4L63.2739 171.494L68.4028 174.78L69.7445 172.686L71.1095 173.561L68.9339 177.102L68.258 176.669C67.9727 176.822 66.6609 177.44 65.3466 178.878C64.6319 179.673 63.7541 180.868 63.2107 181.716L61.9284 183.717L56.9321 180.516L61.9762 172.644ZM59.3828 180.104L61.3972 181.395L62.1105 180.282C62.6795 179.394 63.224 178.603 63.8878 177.888C64.7734 176.885 65.7076 176.156 66.5749 175.59L63.5268 173.637L59.3828 180.104Z" fill="#1E1E1E"/>
<path d="M56.7976 173.69C55.4777 175.212 54.012 176.254 52.3182 176.285C51.1145 176.304 50.3319 175.813 49.666 175.235C49.0001 174.658 48.4032 173.952 48.2512 172.758C48.0423 171.077 48.8659 169.479 50.1858 167.957C51.5057 166.434 52.9714 165.393 54.6652 165.362C55.8689 165.343 56.6515 165.834 57.3174 166.411C57.9833 166.989 58.5803 167.694 58.7322 168.888C58.9411 170.569 58.1175 172.168 56.7976 173.69ZM55.3349 172.422C56.0464 171.601 56.8731 170.359 56.9067 169.264C56.937 168.436 56.593 167.992 56.2243 167.672C55.8557 167.352 55.3673 167.075 54.5521 167.222C53.472 167.41 52.36 168.404 51.6485 169.225C50.9473 170.034 50.1222 171.297 50.0768 172.383C50.0464 173.211 50.3904 173.655 50.7591 173.975C51.1277 174.294 51.6161 174.572 52.4313 174.425C53.4995 174.226 54.6337 173.23 55.3349 172.422Z" fill="#1E1E1E"/>
<path d="M43.1053 166.083L45.1401 164.297L43.5724 162.511C43.1467 162.026 42.6244 161.311 42.7193 160.369C42.8009 159.46 43.5399 158.56 44.1433 158.031C44.8057 157.449 45.658 157.037 46.4161 157.041C47.6214 157.031 48.3467 157.881 48.5751 158.141L51.3576 161.312L43.0763 168.579L38.695 163.587L39.9491 162.486L43.1053 166.083ZM46.3941 163.197L48.8785 161.016L47.7468 159.727C47.3834 159.313 47.0587 158.99 46.5005 158.999C46.2325 159.004 45.8358 159.1 45.3271 159.547C45.055 159.786 44.7312 160.133 44.6771 160.62C44.632 161.141 44.951 161.552 45.2313 161.872L46.3941 163.197Z" fill="#1E1E1E"/>
<path d="M36.2663 160.38L34.2387 157.463C33.6197 156.572 33.1846 155.726 33.4907 154.652C33.7901 153.678 34.4888 153.058 35.0567 152.664C36.1409 151.91 37.0672 151.783 37.7673 151.909C38.7956 152.094 39.4411 152.775 39.9435 153.497L40.9125 154.891L44.2424 152.577L45.3011 154.1L36.2663 160.38ZM36.5758 157.906L39.5444 155.842L38.71 154.642C38.4677 154.294 38.11 153.834 37.5243 153.762C37.223 153.742 36.7876 153.777 36.2197 154.172C35.7035 154.53 35.4318 154.911 35.3599 155.248C35.1841 155.849 35.4902 156.344 35.7324 156.693L36.5758 157.906Z" fill="#1E1E1E"/>
<path d="M26.7111 144.15L25.8939 142.478L35.8101 137.63L36.6273 139.302L26.7111 144.15ZM29.3983 149.646L33.2231 147.776L32.3435 145.977C32.0319 145.34 31.6516 144.49 32.0199 143.52C32.3231 142.74 33.0767 142.056 34.04 141.585C35.0033 141.114 35.8923 141.066 36.5606 141.248C37.623 141.518 38.1163 142.348 38.4418 143.014L40.1317 146.47L30.2155 151.318L29.3983 149.646ZM34.7247 147.042L37.8129 145.533L37.1342 144.144C36.8918 143.648 36.6554 143.273 36.1136 143.134C35.7267 143.025 35.2888 143.098 34.793 143.341C34.3538 143.555 33.9843 143.876 33.8329 144.249C33.6525 144.706 33.7828 145.116 34.0321 145.626L34.7247 147.042Z" fill="#1E1E1E"/>
<path d="M21.375 138.251L20.9595 136.935C21.2342 136.815 21.4553 136.63 21.6277 136.395C21.8559 136.076 21.911 135.73 21.7835 135.326C21.6607 134.938 21.412 134.671 21.0421 134.541C20.7659 134.447 20.4786 134.423 20.1851 134.483L19.7696 133.167C20.3118 133.061 20.8068 133.119 21.231 133.264C22.114 133.561 22.5957 134.149 22.8601 134.986C23.1245 135.824 23.0679 136.582 22.5154 137.332C22.2518 137.694 21.8795 138.026 21.375 138.251ZM31.5116 134.211L22.7373 133.035L22.1896 131.301L32.6567 127.996L33.2139 129.76L25.5729 132.173L34.3472 133.349L34.8949 135.083L24.4278 138.389L23.8706 136.624L31.5116 134.211Z" fill="#1E1E1E"/>
<path d="M28.44 124.998L26.8032 125.321L26.1629 122.079L27.7997 121.755L28.44 124.998Z" fill="#1E1E1E"/>
<path d="M25.449 116.011L25.5205 117.126L30.4527 116.81L30.5716 118.664L19.5762 119.369L19.4573 117.515L23.8555 117.233L23.7819 116.087C22.2629 116.01 20.9015 115.688 19.8916 114.696C19.0331 113.852 18.8332 112.95 18.7768 112.07C18.7204 111.191 18.8033 110.27 19.547 109.324C20.5974 107.995 22.3137 107.459 24.3243 107.33C26.3349 107.201 28.1057 107.513 29.3172 108.697C30.1757 109.541 30.3755 110.443 30.432 111.323C30.4884 112.202 30.4054 113.122 29.6618 114.069C28.8583 115.067 27.4712 115.818 25.449 116.011ZM24.7606 114.131C25.8444 114.062 27.3088 113.778 28.1127 113.033C28.7235 112.473 28.7982 111.916 28.7669 111.429C28.7357 110.942 28.5905 110.4 27.9132 109.923C27.0207 109.286 25.5321 109.192 24.4482 109.262C23.3801 109.33 21.901 109.63 21.0961 110.36C20.4853 110.92 20.4106 111.476 20.4418 111.963C20.4731 112.45 20.6183 112.993 21.2956 113.47C22.1871 114.091 23.6924 114.2 24.7606 114.131Z" fill="#1E1E1E"/>
<path d="M20.9225 101.614L30.2433 102.348L30.0976 104.199L19.1135 103.335L19.5705 97.529L21.2338 97.6599L20.9225 101.614Z" fill="#1E1E1E"/>
<path d="M30.7894 97.2351L28.686 96.9339L28.927 95.2511L31.0304 95.5524L30.7894 97.2351Z" fill="#1E1E1E"/>
<path d="M20.6363 90.8514L21.4444 87.3872C21.6911 86.3295 22.0283 85.4384 23.0322 84.9453C23.957 84.5145 24.8864 84.6181 25.5609 84.7754C26.8485 85.0758 27.5643 85.6792 27.9404 86.2841C28.4928 87.1726 28.4198 88.1091 28.2196 88.9675L27.8334 90.623L31.7882 91.5455L31.3663 93.3543L20.6363 90.8514ZM22.6831 89.4216L26.2086 90.244L26.5411 88.8185C26.6377 88.4046 26.7393 87.8303 26.3995 87.347C26.2125 87.1094 25.8947 86.809 25.2202 86.6517C24.6071 86.5086 24.1421 86.5618 23.8432 86.7345C23.2787 87.0069 23.1157 87.5669 23.0192 87.9808L22.6831 89.4216Z" fill="#1E1E1E"/>
<path d="M36.0034 79.3651L35.339 81.0995L33.8691 80.5365L33.7847 80.757C33.5876 81.2714 33.2404 81.9138 32.8229 82.3437C32.2361 82.9955 31.5393 83.3185 30.7721 83.4291C30.0694 83.5476 29.1799 83.4934 28.0629 83.0655C26.6371 82.5194 25.6007 81.6167 25.1902 80.5324C24.7921 79.5034 24.9874 78.4658 25.3477 77.5251L25.4322 77.3046L23.8006 76.6796L24.465 74.9452L26.0966 75.5702L26.181 75.3497C26.5414 74.409 27.0894 73.5065 28.073 73.0068C29.1029 72.4742 30.4771 72.495 31.9028 73.0411C33.0199 73.4691 33.7179 74.023 34.1617 74.5806C34.6586 75.1755 34.9612 75.8814 34.9624 76.7583C34.9858 77.3572 34.815 78.0671 34.618 78.5816L34.5335 78.8021L36.0034 79.3651ZM27.5167 76.131L33.1021 78.2706C33.4559 77.4791 33.3033 76.6453 32.9737 76.0977C32.575 75.4224 31.9067 75.099 31.2159 74.8344C30.7015 74.6373 29.8524 74.3458 29.0752 74.5706C28.5194 74.7453 27.877 75.1903 27.5786 75.9693L27.5167 76.131ZM26.8636 77.8361L26.8016 77.9977C26.5032 78.7768 26.6839 79.5371 26.9807 80.0384C27.4088 80.7249 28.2353 81.0752 28.7498 81.2723C29.4406 81.5369 30.154 81.7428 30.9017 81.5067C31.5129 81.3194 32.1834 80.8009 32.449 79.9756L26.8636 77.8361Z" fill="#1E1E1E"/>
<path d="M43.8604 60.16C45.5172 60.16 46.8604 58.8169 46.8604 57.16C46.8604 55.5032 45.5172 54.16 43.8604 54.16C42.2035 54.16 40.8604 55.5032 40.8604 57.16C40.8604 58.8169 42.2035 60.16 43.8604 60.16Z" fill="#1E1E1E"/>
<path d="M98.8604 192.16C100.517 192.16 101.86 190.817 101.86 189.16C101.86 187.503 100.517 186.16 98.8604 186.16C97.2035 186.16 95.8604 187.503 95.8604 189.16C95.8604 190.817 97.2035 192.16 98.8604 192.16Z" fill="#1E1E1E"/>
<path d="M72.0803 79.5395C74.1808 79.5395 75.804 80.2079 76.9498 81.5446C78.0955 82.8813 78.7639 84.409 78.7639 86.3186C78.7639 88.2282 78.0955 89.7559 76.9498 90.9971C75.804 92.3338 74.1808 92.9067 72.0803 92.9067C69.9797 92.9067 68.2611 92.3338 67.1153 90.9971C65.8741 89.7559 65.3012 88.2282 65.3012 86.3186C65.3012 84.409 65.8741 82.8813 67.1153 81.5446C68.2611 80.2079 69.9797 79.5395 72.0803 79.5395ZM72.0803 110.093C74.1808 110.093 75.804 110.761 76.9498 112.098C78.0955 113.435 78.7639 114.963 78.7639 116.872C78.7639 118.782 78.0955 120.309 76.9498 121.551C75.804 122.887 74.1808 123.46 72.0803 123.46C69.9797 123.46 68.2611 122.887 67.1153 121.551C65.8741 120.309 65.3012 118.782 65.3012 116.872C65.3012 114.963 65.8741 113.435 67.1153 112.098C68.2611 110.761 69.9797 110.093 72.0803 110.093ZM107.157 49.3678C108.208 49.5588 109.067 50.1317 109.831 51.0865C110.595 52.0413 110.881 53.0916 110.69 54.0463C110.499 54.9057 110.308 55.765 109.926 56.5288C109.544 57.3881 108.971 58.4384 108.112 59.6797C107.348 60.8254 106.871 61.6847 106.584 62.2576C106.298 62.8305 106.107 63.3079 106.107 63.8808L104.102 63.4989C104.102 62.926 104.102 62.3531 104.102 61.7802C104.006 61.2073 103.72 60.2525 103.338 58.9158C102.765 57.4836 102.479 56.3379 102.383 55.4785C102.288 54.6192 102.288 53.7599 102.479 52.9006C102.67 51.8503 103.243 50.991 104.197 50.2271C105.152 49.5588 106.107 49.2723 107.157 49.3678ZM100.856 60.0616C101.428 61.2073 101.81 62.0667 102.192 62.5441C102.574 63.1169 102.956 63.4989 103.434 63.8808L102.192 65.4085C101.715 65.122 101.237 64.8356 100.665 64.5492C100.092 64.3582 99.1369 64.0718 97.8957 63.7853C96.2725 63.4989 95.0313 63.2124 94.2675 62.8305C93.5036 62.4486 92.7398 62.0667 92.1669 61.4938C91.2121 60.9209 90.7347 59.9661 90.6392 58.8204C90.5437 57.6746 90.8302 56.7198 91.4985 55.765C92.0714 55.0011 92.9307 54.5237 94.0765 54.3328C95.2223 54.1418 96.2725 54.3328 97.2273 54.9057C97.8002 55.4785 98.3731 56.1469 98.946 56.8153C99.5189 57.5791 100.092 58.6294 100.856 60.0616ZM120.429 59.9661C120.811 61.0164 120.811 62.0667 120.429 63.1169C119.952 64.2627 119.188 64.9311 118.137 65.2175C117.374 65.5994 116.514 65.8859 115.655 65.9814C114.796 66.1723 113.554 66.1723 112.027 65.9814C110.69 65.8859 109.64 65.8859 109.067 65.9814C108.494 66.0768 107.921 66.1723 107.444 66.3633L106.68 64.3582C107.157 64.1672 107.635 63.8808 108.208 63.4989C108.685 63.1169 109.353 62.4486 110.308 61.4938C111.358 60.348 112.218 59.5842 112.982 59.0113C113.65 58.5339 114.414 58.152 115.178 57.7701C116.132 57.3881 117.183 57.4836 118.233 57.8655C119.283 58.343 120.047 59.0113 120.429 59.9661ZM102.001 66.1723L102.765 67.9864C102.192 68.2729 101.715 68.5593 101.237 68.9412C100.76 69.3231 100.092 69.9915 99.2324 70.8508C98.0867 72.0921 97.2273 72.9514 96.559 73.4288C95.7951 74.0017 95.0313 74.3836 94.2675 74.67C93.2172 75.1474 92.1669 75.1474 91.1166 74.67C90.0663 74.2881 89.398 73.5243 89.0161 72.5695C88.5387 71.6147 88.5387 70.6599 89.0161 69.5141C89.398 68.3683 90.1618 67.6045 91.2121 67.2226C91.9759 66.9361 92.8353 66.7452 93.6946 66.5542C94.5539 66.4587 95.7951 66.4587 97.4183 66.5542C98.755 66.6497 99.7098 66.6497 100.283 66.5542C100.856 66.5542 101.428 66.3633 102.001 66.1723ZM117.278 71.0418C118.137 71.7102 118.615 72.5695 118.806 73.7152C118.901 74.861 118.615 75.9113 118.042 76.7706C117.374 77.6299 116.514 78.1073 115.369 78.2983C114.223 78.4892 113.172 78.2983 112.313 77.5344C111.549 76.9616 110.976 76.3887 110.404 75.6248C109.831 74.9565 109.258 73.9062 108.589 72.3785C108.017 71.2328 107.539 70.4689 107.253 69.896C106.871 69.4186 106.489 69.0367 106.107 68.6548L107.253 67.0316C107.635 67.4135 108.208 67.7 108.78 67.8909C109.353 68.0819 110.213 68.3683 111.454 68.5593C112.982 68.9412 114.223 69.3231 115.082 69.7051C115.846 70.087 116.61 70.4689 117.278 71.0418ZM106.011 73.4288C106.489 74.9565 106.775 76.1977 106.871 77.057C106.966 77.9164 106.966 78.7757 106.871 79.635C106.68 80.7808 106.107 81.6401 105.152 82.3084C104.197 82.9768 103.243 83.2632 102.288 83.0723C101.142 82.9768 100.283 82.4994 99.6143 81.5446C98.8505 80.6853 98.6595 79.635 98.8505 78.4892C98.946 77.6299 99.1369 76.7706 99.5189 76.0067C99.9008 75.2429 100.474 74.0971 101.333 72.6649C102.001 71.7102 102.479 70.8508 102.765 70.278C102.956 69.7051 103.147 69.2277 103.338 68.6548L105.343 69.0367C105.248 69.6096 105.248 70.1825 105.343 70.7554C105.343 71.3282 105.63 72.283 106.011 73.4288ZM157.747 99.4948C157.747 109.234 154.978 118.686 149.44 127.661C143.902 136.732 137.123 143.225 129.007 147.235L127.289 144.561C131.012 141.792 133.304 139.978 134.259 139.024C135.213 138.164 136.073 137.209 136.932 136.255C138.173 134.727 139.319 133.008 140.369 131.099C141.42 129.189 142.374 127.184 143.138 124.988C143.711 123.174 144.284 121.169 144.761 119.068C145.239 116.968 145.621 114.772 145.907 112.385C146.098 110.475 146.289 108.374 146.48 106.274C146.576 104.173 146.671 101.882 146.671 99.4948C146.671 94.2434 146.385 89.374 145.812 84.9819C145.239 80.5898 144.475 76.4841 143.329 72.8559C141.897 68.6548 140.083 64.9311 137.887 61.7802C135.595 58.7249 132.063 55.4785 127.289 52.1367L129.007 49.4633C136.837 52.9006 143.52 59.5842 149.249 69.4186C154.882 79.2531 157.747 89.2785 157.747 99.4948Z" fill="#1E1E1E"/>
</svg>
