<svg width="295" height="279" viewBox="0 0 295 279" fill="none" xmlns="http://www.w3.org/2000/svg">
<path d="M69.6509 51.5309C73.0667 59.4929 79.1956 65.9854 86.9478 69.8539C87.0199 69.8655 87.0908 69.8837 87.1596 69.9082L88.3322 70.5162C108.816 81.0648 115.282 88.812 113.849 101.185C112.367 113.796 103.229 122.358 90.6179 120.86C78.4297 119.426 73.2721 111.945 65.2426 103.08C64.9657 102.776 64.6996 102.471 64.4065 102.162C64.2829 102.014 64.167 101.86 64.059 101.701C59.3418 96.4818 53.2268 92.7254 46.4392 90.8771C39.6516 89.0287 32.4763 89.1659 25.7643 91.2723C19.0523 93.3787 13.0853 97.366 8.57102 102.761C4.05671 108.157 1.18452 114.733 0.295125 121.712C-0.594266 128.69 0.536453 135.777 3.55317 142.132C6.56989 148.487 11.346 153.844 17.3151 157.566C23.2842 161.289 30.1957 163.221 37.2299 163.135C44.2641 163.048 51.1259 160.945 57.0013 157.077C57.0448 157.018 57.0959 156.965 57.1533 156.919L58.3531 156.143C77.6805 143.721 87.5993 142.027 97.5724 149.465C107.752 157.066 110.602 169.238 103.001 179.417C95.6668 189.26 86.6058 189.982 74.9171 192.507L73.7064 192.767C73.511 192.811 73.3209 192.816 73.1309 192.843C66.2502 194.315 59.936 197.73 54.9378 202.682C49.9395 207.635 46.467 213.917 44.9322 220.784C43.3974 227.651 43.8648 234.815 46.279 241.424C48.6932 248.033 52.9527 253.811 58.5522 258.072C64.1517 262.333 70.8561 264.898 77.8697 265.464C84.8834 266.029 91.912 264.57 98.1214 261.26C104.331 257.95 109.46 252.929 112.901 246.791C116.343 240.653 117.951 233.658 117.535 226.633C117.506 226.568 117.486 226.498 117.475 226.427C117.448 225.966 117.437 225.553 117.416 225.102C116.33 202.094 119.788 192.621 131.227 187.691C142.889 182.669 154.86 186.312 159.881 197.974C164.735 209.25 160.832 217.453 157.167 228.838C157.042 229.234 156.912 229.619 156.787 230.021C156.727 230.211 156.64 230.374 156.564 230.564C154.398 237.259 154.199 244.434 155.988 251.239C157.778 258.044 161.483 264.193 166.662 268.955C171.842 273.718 178.279 276.895 185.209 278.109C192.14 279.323 199.274 278.523 205.764 275.805C212.254 273.086 217.827 268.563 221.824 262.772C225.82 256.98 228.071 250.164 228.31 243.132C228.549 236.1 226.765 229.147 223.171 223.098C219.576 217.049 214.322 212.158 208.031 209.005C207.96 208.995 207.889 208.979 207.82 208.957L206.647 208.343C186.169 197.8 179.703 190.047 181.131 177.68C182.618 165.068 191.755 156.507 204.367 158C216.555 159.433 221.74 166.92 229.737 175.78C230.019 176.084 230.28 176.388 230.573 176.697C230.709 176.844 230.806 177.007 230.926 177.159C235.641 182.382 241.755 186.142 248.544 187.995C255.332 189.847 262.509 189.712 269.224 187.608C275.938 185.503 281.908 181.516 286.424 176.121C290.941 170.725 293.815 164.147 294.705 157.167C295.595 150.187 294.464 143.098 291.446 136.742C288.428 130.385 283.65 125.028 277.678 121.306C271.707 117.584 264.793 115.652 257.757 115.742C250.721 115.831 243.858 117.937 237.983 121.81C237.94 121.866 237.891 121.916 237.837 121.962L236.637 122.738C217.31 135.165 207.391 136.854 197.418 129.421C187.238 121.821 184.388 109.643 191.989 99.4638C199.323 89.621 208.384 88.8989 220.073 86.3798L221.284 86.1138C221.474 86.0796 221.666 86.0561 221.859 86.0432C228.742 84.5725 235.058 81.1581 240.058 76.2053C245.058 71.2525 248.532 64.9692 250.068 58.1011C251.604 51.233 251.137 44.0684 248.723 37.4576C246.309 30.8468 242.049 25.0673 236.449 20.805C230.849 16.5426 224.143 13.9765 217.128 13.4109C210.113 12.8454 203.083 14.3043 196.872 17.6145C190.662 20.9247 185.531 25.9472 182.089 32.086C178.648 38.2248 177.039 45.2221 177.455 52.2475C177.48 52.3166 177.5 52.3873 177.515 52.4592C177.515 52.9153 177.547 53.3333 177.569 53.7785C178.682 76.7867 175.202 86.2658 163.763 91.19C152.096 96.2118 140.125 92.5744 135.103 80.9074C130.25 69.6367 134.153 61.428 137.818 50.0433C137.948 49.6524 138.073 49.2616 138.198 48.8652C138.258 48.6752 138.35 48.5069 138.42 48.3223C140.246 42.6659 140.673 36.6513 139.664 30.7937C138.656 24.9362 136.243 19.4104 132.632 14.6895C129.021 9.96871 124.319 6.19363 118.93 3.68768C113.54 1.18172 107.623 0.0195954 101.686 0.300836C95.7494 0.582076 89.9691 2.29831 84.8406 5.30251C79.7121 8.30671 75.3883 12.5093 72.2395 17.5504C69.0907 22.5914 67.2109 28.3207 66.761 34.2472C66.3111 40.1738 67.3046 46.1212 69.6564 51.5797L69.6509 51.5309Z" fill="#D7C8DC"/>
<path d="M193.697 191C226.086 181.375 247.182 156.207 240.816 134.786C234.451 113.365 203.034 103.802 170.645 113.427C138.256 123.052 117.16 148.22 123.526 169.641C129.891 191.062 161.308 200.624 193.697 191Z" fill="#F0DC82"/>
<path d="M150.093 169.645L157.704 167.384L153.543 153.382L148.437 154.899C150.613 162.221 151.165 167.137 150.093 169.645ZM159.613 151.578L156.851 152.399L161.012 166.401L163.87 165.551L165.598 171.364L164.538 171.679L164.299 170.876C163.517 168.243 161.83 167.311 159.24 168.081L151.821 170.285C149.231 171.055 148.327 172.757 149.109 175.39L149.348 176.193L148.32 176.498L146.593 170.686L148.391 170.151C149.428 168.701 149.445 165.504 148.442 160.56C148.315 159.898 147.885 158.139 147.153 155.281L144.648 156.025L144.342 154.997L159.308 150.55L159.613 151.578Z" fill="#1E1E1E"/>
<path d="M171.339 149.491C171.64 148.936 172.133 148.556 172.818 148.353C173.503 148.149 174.124 148.198 174.679 148.499C175.198 148.834 175.553 149.323 175.744 149.965C175.941 150.629 175.897 151.224 175.611 151.752C175.325 152.28 174.839 152.645 174.154 152.849C173.491 153.046 172.884 153.005 172.335 152.725C171.786 152.446 171.413 151.974 171.216 151.311C171.012 150.625 171.053 150.019 171.339 149.491ZM174.393 159.768C174.694 159.213 175.187 158.833 175.872 158.63C176.557 158.426 177.177 158.475 177.733 158.776C178.252 159.111 178.607 159.599 178.798 160.242C178.995 160.905 178.95 161.501 178.665 162.029C178.379 162.556 177.893 162.922 177.208 163.126C176.544 163.323 175.938 163.282 175.389 163.002C174.84 162.723 174.467 162.251 174.269 161.587C174.066 160.902 174.107 160.296 174.393 159.768Z" fill="#1E1E1E"/>
<path d="M182.965 164.036C183.708 163.792 184.305 163.487 184.755 163.12C185.226 162.747 185.535 162.294 185.679 161.762C185.852 161.244 185.836 160.643 185.633 159.958L184.249 155.301C183.924 154.209 183.956 153.257 184.343 152.442C184.724 151.607 185.471 150.907 186.585 150.343L186.528 150.151C185.287 150.286 184.282 150.119 183.513 149.648C182.737 149.157 182.188 148.365 181.863 147.273L180.47 142.584C180.26 141.877 179.952 141.351 179.547 141.006C179.141 140.661 178.639 140.46 178.04 140.405C177.462 140.344 176.788 140.428 176.018 140.657L175.33 138.344C176.315 138.052 177.225 137.898 178.059 137.883C178.915 137.862 179.685 137.982 180.369 138.245C181.046 138.487 181.62 138.887 182.089 139.447C182.579 140 182.952 140.705 183.206 141.561L184.6 146.25C184.816 146.978 185.141 147.522 185.574 147.882C186.001 148.222 186.536 148.412 187.177 148.455C187.834 148.469 188.58 148.352 189.415 148.104L190.112 150.449C189.277 150.697 188.591 151.017 188.055 151.409C187.534 151.774 187.188 152.215 187.015 152.732C186.843 153.249 186.865 153.872 187.081 154.6L188.503 159.385C188.84 160.519 188.853 161.541 188.54 162.449C188.227 163.358 187.643 164.137 186.788 164.787C185.961 165.453 184.915 165.973 183.652 166.348L182.965 164.036Z" fill="#1E1E1E"/>
<path d="M199.051 146.674C199.56 148.386 199.889 150.118 200.036 151.868C200.205 153.612 200.155 155.328 199.888 157.015C199.648 158.717 199.17 160.362 198.453 161.95L195.82 162.733C196.404 161.091 196.802 159.412 197.014 157.694C197.232 155.998 197.271 154.286 197.13 152.557C196.989 150.828 196.674 149.139 196.184 147.491C195.681 145.8 195.013 144.18 194.181 142.634C193.349 141.087 192.372 139.641 191.25 138.297C190.128 136.953 188.867 135.767 187.466 134.738L190.132 133.946C191.605 134.906 192.91 136.045 194.047 137.361C195.205 138.671 196.193 140.113 197.011 141.688C197.849 143.256 198.53 144.918 199.051 146.674Z" fill="#1E1E1E"/>
<path d="M221.608 134.274C223.455 135.472 224.725 137.238 225.419 139.572C226.112 141.906 226.033 144.108 225.18 146.179C224.321 148.228 222.746 149.593 220.456 150.274C218.25 150.929 216.235 150.654 214.409 149.45C212.577 148.223 211.305 146.492 210.594 144.257L207.864 145.068L209.888 151.877L212.039 151.237L212.354 152.297L204.422 154.654L204.107 153.594L206.612 152.85L202.451 138.848L199.946 139.592L199.641 138.565L207.573 136.208L207.878 137.235L205.727 137.875L207.559 144.041L210.321 143.22C209.822 140.992 210.012 138.966 210.892 137.144C211.793 135.315 213.314 134.082 215.455 133.446C217.724 132.772 219.775 133.048 221.608 134.274ZM213.954 142.979C214.132 143.579 214.296 144.089 214.444 144.511C214.593 144.933 214.795 145.455 215.05 146.079C215.326 146.695 215.617 147.203 215.922 147.602C216.22 147.979 216.572 148.341 216.978 148.686C217.384 149.032 217.857 149.252 218.398 149.348C218.933 149.422 219.51 149.367 220.131 149.182C221.009 148.921 221.667 148.469 222.105 147.827C222.558 147.156 222.778 146.368 222.766 145.463C222.747 144.537 222.668 143.722 222.528 143.017C222.41 142.307 222.218 141.502 221.951 140.603C221.785 140.046 221.625 139.546 221.47 139.103C221.315 138.66 221.105 138.151 220.842 137.577C220.572 136.982 220.273 136.488 219.947 136.095C219.642 135.697 219.279 135.338 218.859 135.021C218.453 134.675 217.983 134.465 217.448 134.391C216.935 134.311 216.379 134.36 215.779 134.538C215.159 134.722 214.644 134.992 214.237 135.346C213.83 135.7 213.55 136.132 213.399 136.643C213.242 137.133 213.13 137.62 213.065 138.106C213.015 138.563 213.053 139.123 213.179 139.784C213.306 140.446 213.422 140.993 213.528 141.428C213.628 141.841 213.769 142.358 213.954 142.979Z" fill="#1E1E1E"/>
</svg>
